<?xml version="1.0" encoding="UTF-8" standalone="no"?>
<!-- Created with Inkscape (http://www.inkscape.org/) -->

<svg
   version="1.1"
   id="svg1"
   width="476"
   height="804"
   viewBox="0 0 476 804"
   xmlns="http://www.w3.org/2000/svg"
   xmlns:svg="http://www.w3.org/2000/svg">
  <defs
     id="defs1" />
  <g
     id="g1"
     style="display:inline">
    <g
       id="g2"
       transform="translate(12.995188,16.685096)">
      <path
         id="path3"
         style="fill:#00ffff;fill-opacity:1"
         d="m 375.35565,45.182272 c -0.40269,1.226588 -1.9354,2.182268 -4.44531,1.806641 -0.28864,-0.0432 -0.57659,-0.08766 -0.86523,-0.13086 -1.1605,-0.1719 -2.32483,-0.309823 -3.49024,-0.443359 -0.39772,2.1e-5 -0.79563,-2.26e-4 -1.19336,0 -0.27647,3e-4 -0.55165,7.53e-4 -0.82812,0.002 -0.16175,9e-4 -0.32468,0.0018 -0.48633,0.0078 -0.16516,0.0066 -0.32983,0.01424 -0.49414,0.0332 -0.17069,0.01255 -0.33509,0.05714 -0.49805,0.109375 -0.5222,0.129853 -1.0531,0.179273 -1.58984,0.158203 -0.28747,-3.9e-5 -0.57582,2.78e-4 -0.86328,0 -0.20298,-3e-4 -0.40445,-4.53e-4 -0.60743,-0.002 -0.28515,-0.0021 -0.57044,-0.0063 -0.85546,-0.01563 -0.50138,-0.01635 -1.00319,-0.03998 -1.50391,-0.07031 -0.90577,-0.0559 -1.81189,-0.12148 -2.71484,-0.21289 -0.25259,-0.02557 -0.48785,-0.06393 -0.71485,-0.109375 -0.16732,-0.0051 -0.33457,-0.01652 -0.50195,-0.01758 -0.17914,0.0053 -0.35806,0.009 -0.53516,0.03906 -0.29177,0.04751 -0.58601,0.09163 -0.88281,0.07617 -0.25572,8.7e-5 -0.50991,-4.99e-4 -0.76563,0 -0.16191,4.4e-4 -0.32443,9.1e-4 -0.48632,0.0039 -0.16356,0.0037 -0.32692,0.01179 -0.49024,0.02148 -0.26307,0.01541 -0.52563,0.03289 -0.78711,0.06641 -0.26211,0.03355 -0.52504,0.04584 -0.78906,0.0332 -0.19397,-0.0055 -0.38874,-0.01367 -0.58203,-0.03125 -0.35594,-0.03157 -0.71074,-0.07288 -1.0625,-0.136719 -0.19995,-0.03652 -0.40066,-0.07359 -0.59961,-0.117187 -2.6722,0.07399 -5.85818,0.08003 -10.17578,-0.06641 -26.10183,-0.885225 -27.40947,0.143011 -28.51758,22.408203 -0.28178,5.661834 -0.48378,8.849904 -0.82227,10.84375 0.0384,0.190408 0.0629,0.383014 0.0527,0.578125 -2e-5,0.143944 7e-5,0.287697 0,0.431641 -10e-5,0.172859 4.6e-4,0.344719 0,0.517578 -10e-4,0.149334 -0.003,0.299917 -0.006,0.449219 -0.005,0.176038 -0.009,0.352878 -0.0352,0.527344 -0.0223,0.138562 -0.0495,0.275172 -0.0801,0.412109 -0.002,0.0094 -0.004,0.03315 -0.006,0.03906 l -0.002,-0.002 c -0.002,-0.0055 -0.002,-0.0161 -0.002,-0.02539 -0.003,0.106201 0.006,0.212342 0,0.318359 -6e-5,0.159584 3.7e-4,0.320885 0,0.480469 0,0.160494 -0.002,0.319989 -0.004,0.480469 -0.003,0.190088 -0.007,0.380577 -0.0195,0.570312 -0.0175,0.237065 -0.0443,0.474113 -0.11133,0.703125 -0.002,0.0062 -0.002,0.0073 -0.004,0.01367 -0.0108,0.124846 -0.0247,0.261261 -0.0117,0.146484 -0.0217,0.251215 -0.0609,0.501098 -0.16211,0.734375 -0.16895,0.354728 -0.33057,0.497655 -0.41797,0.597657 -0.23579,0.192609 -0.47526,0.372938 -0.77539,0.455078 -0.29408,0.109153 -0.59036,0.219209 -0.9043,0.255859 -0.44683,0.03619 -0.88743,-0.0764 -1.21289,-0.396484 -0.19819,-0.18818 -0.3736,-0.398763 -0.50586,-0.638672 -0.0777,-0.01437 -0.15694,0.0075 -0.23437,-0.0098 -0.32022,-0.07242 -0.60993,-0.206015 -0.87891,-0.375 h -0.002 c -0.5013,0.02689 -0.82588,-0.150152 -1.05078,-0.423828 -0.11346,0.02081 -0.22662,0.04166 -0.33985,0.0625 0.0108,0.03243 0.0204,0.0653 0.0312,0.09766 0.79739,2.351281 -1.52421,3.18171 -2.37304,0.941407 -0.23248,0.09781 -0.47491,0.105605 -0.69727,0.0293 -0.81043,2.236349 -1.8148,4.383985 -3.48437,5.982421 -0.78868,0.754904 -1.71218,1.35241 -2.59766,1.994141 1.10847,0.08528 2.21772,0.146605 3.33008,0.138672 2.43539,0.04685 4.87028,0.115639 7.30469,0.199219 4.1093,0.153636 8.2595,0.230738 12.30273,1.042968 2.89726,1.006182 3.52541,0.961945 6.17188,4.125 0.79223,0.947499 2.30176,4.290219 1.56445,3.421879 0.0734,0.19785 0.15141,0.3943 0.20703,0.59766 0.49304,1.80316 0.69866,3.71015 0.22266,5.56054 -0.15297,0.62219 -0.35725,1.22604 -0.58204,1.82227 -0.11985,1.34943 -0.43514,2.32413 -0.96484,3.06641 -0.0705,0.26387 -0.12416,0.53141 -0.22266,0.78906 -0.0392,0.10719 -0.0912,0.20225 -0.13281,0.30664 -0.0141,0.10849 -0.0331,0.216 -0.0488,0.32422 0.0195,-0.0659 -0.0371,-0.003 -0.16796,0.18359 -0.10586,0.23705 -0.20874,0.48308 -0.32422,0.71485 0.001,0.003 0.001,0.0435 -0.004,0.0879 0.24432,-0.45051 0.42456,-0.78845 0.49414,-0.96485 -0.13591,0.92643 -0.32306,1.84276 -0.65234,2.72266 -0.035,0.344 -0.045,0.69087 -0.0957,1.0332 -0.1371,0.80254 -0.32741,1.58003 -0.54296,2.35352 -0.0388,0.35337 -0.0795,0.71305 -0.0996,0.93164 -0.52112,2.2359 -1.55256,4.29575 -3.23829,5.84961 -0.88089,0.7381 -1.66736,1.48365 -2.78906,1.90625 -0.51476,0.19394 -1.52963,0.45608 -2.38281,0.66992 -1.58716,0.68808 -0.82915,0.45058 -4.19922,0.9668 -0.14724,0.0225 -0.30056,-0.0238 -0.44726,0 h -0.95313 -1.26758 -1.50781 c -0.91851,-1e-5 -1.83735,4e-5 -2.75586,0 -1.04624,-6e-5 -2.09243,4.9e-4 -3.13867,0 -0.72156,-6e-4 -1.44295,-0.002 -2.16406,-0.004 -0.79875,-0.003 -1.59803,-0.005 -2.39649,-0.0293 -0.94003,-0.0294 -1.88051,-0.0751 -2.81836,-0.14648 -1.84871,-0.13544 -3.69568,-0.29233 -5.53906,-0.48828 -1.71166,-0.17629 -3.43106,-0.21972 -5.13867,-0.44141 -0.94188,-0.13965 -1.76812,-0.36189 -2.65235,-0.32617 -2.40532,-0.0278 -4.81321,-0.0594 -7.21679,-0.16016 -1.95567,-0.0969 -3.90951,-0.22269 -5.84961,-0.49804 0.10059,-0.005 0.40129,-0.008 0.30078,-0.0137 -1.21609,-0.0729 -2.44345,0.0357 -3.66016,-0.0351 l -0.34765,-0.006 c 0.47999,2.35853 0.44089,5.20676 -0.33399,8.50391 -0.16795,0.71478 -0.0696,0.26939 -0.26367,1.33984 -0.11819,0.56176 -0.29274,2.10681 -0.50586,3.25976 -0.23375,1.25783 -0.19655,0.89157 -0.33984,2.71875 -0.0197,0.18728 -0.0498,0.37335 -0.0703,0.56055 1.91063,1.15103 3.875,4.56832 3.875,7.38477 0,14.10867 4.03941,17.35966 21.59375,17.38476 13.2728,0.019 14.51823,0.25013 18,3.33008 5.13334,4.54099 2.62331,5.97771 -10.48437,6.00391 -12.24019,0.0245 -14.44141,0.71944 -14.44141,4.5625 0,5.47365 2.23191,6.125 21.02149,6.125 21.03927,0 19.66396,-0.57205 37.25781,15.47461 0.84634,0.77188 1.6536,1.41761 2.48047,2.125 0.0612,0.0261 0.12217,0.053 0.18359,0.0781 0.21424,0.0896 0.42144,0.19481 0.63477,0.28711 0.3006,0.13644 0.58173,0.31081 0.86523,0.47852 0.27141,0.13765 0.52011,0.31297 0.78907,0.45507 0.26993,0.1304 0.52719,0.28798 0.78906,0.4336 0.2831,0.16274 0.56037,0.33341 0.8457,0.49219 0.40021,0.22053 0.79595,0.44717 1.17969,0.69531 0.27603,0.16153 0.54923,0.32753 0.80664,0.51758 0.25994,0.20101 0.52325,0.39837 0.77539,0.60937 0.25626,0.22166 0.52438,0.42861 0.78711,0.64258 0.19852,0.15597 0.39111,0.31843 0.58789,0.47656 0.26966,0.2246 0.52894,0.4612 0.79883,0.68555 0.34879,0.29299 0.68758,0.59845 1.02148,0.9082 0.11697,0.0986 0.23163,0.20108 0.34571,0.30274 0.14969,0.083 0.30342,0.15948 0.45117,0.24609 0.17804,0.0827 0.34614,0.17931 0.51367,0.28125 0.16124,0.0912 0.32672,0.17798 0.48828,0.27148 0.34941,0.20679 0.70009,0.41326 1.04297,0.63086 0.20348,0.13031 0.41122,0.25358 0.62109,0.37305 0.23913,0.12404 0.47906,0.2462 0.72266,0.36133 0.26153,0.14462 0.53466,0.26317 0.80078,0.39844 0.0868,0.0477 0.28376,0.15888 0.31836,0.17578 0.22126,0.0937 0.42667,0.21849 0.63672,0.33398 0.21525,0.14055 0.44056,0.26459 0.65625,0.4043 0.16004,0.0966 0.30992,0.21134 0.4707,0.30664 0.14175,0.0748 0.25866,0.18398 0.39453,0.26758 0.0153,0.007 0.10333,0.0561 0.21875,0.0996 0.1781,0.0753 0.34504,0.17182 0.51367,0.26562 0.15092,0.069 0.29049,0.16118 0.4375,0.23828 0.21888,0.11306 0.43933,0.22306 0.65625,0.33985 0.16532,0.10225 0.34169,0.17859 0.50977,0.27539 0.0942,0.0763 0.20068,0.13338 0.30078,0.20508 0.17172,0.1418 0.22206,0.18387 0.32617,0.26367 -0.11146,-0.10435 0.11564,0.0975 0.1836,0.16406 10e-4,9.7e-4 0.003,-2e-4 0.004,0.002 l 0.008,0.008 c 0.0256,0.0241 0.0513,0.0496 0.0762,0.0742 -0.10715,-0.10342 0.1603,0.1012 0.1875,0.1211 0.0202,0.0146 0.039,0.0315 0.0586,0.0469 0.37162,0.24272 0.72203,0.3623 1.10156,0.66602 0.95847,0.76688 1.95278,1.48746 2.92969,2.23047 0.87489,0.56624 1.64365,1.27016 2.45117,1.92187 0.0671,0.0533 0.13449,0.10441 0.20118,0.15821 0.29199,0.23574 0.58561,0.47271 0.87304,0.71484 0.33759,0.28432 0.43729,0.39812 0.27735,0.22266 0.84502,0.5314 1.52504,1.21473 2.1914,1.85546 0.61078,0.52262 1.24733,1.13232 1.82813,1.71485 0.66851,0.60491 1.29178,1.25699 1.88476,1.93555 0.45631,0.33319 0.79944,0.83245 1.22852,1.20312 0.4895,0.44758 0.76374,0.63465 1.37109,1.08594 0.70173,0.43921 1.34896,0.96995 2.04297,1.42383 0.96098,0.67409 1.86705,1.41717 2.77149,2.16406 0.90277,0.70677 1.69461,1.53429 2.53125,2.31445 0.59555,0.51222 1.06705,1.14147 1.52734,1.77344 l 0.004,0.004 c 0.0229,0.0229 0.0476,0.0535 0.0742,0.0879 0.0268,0.0371 0.0632,0.0663 0.0898,0.10351 0.0177,0.0176 0.0304,0.0346 0.0352,0.0508 0.0348,0.0433 0.0506,0.0966 0.084,0.14063 0.069,0.10242 0.13963,0.20331 0.21094,0.30469 0.10481,0.17073 0.23459,0.32439 0.35156,0.48632 0.0613,0.0887 0.11909,0.17551 0.21289,0.29688 0.0791,0.10565 0.14701,0.19957 0.19531,0.26367 0.11402,0.14795 0.23021,0.2939 0.33399,0.44922 0.11705,0.16912 0.13697,0.19592 0.19336,0.26562 0.10696,0.0968 0.19352,0.35596 0.23242,0.41016 0.0893,0.18208 0.12266,0.26124 0.19336,0.41016 0.0532,0.13445 0.10611,0.25803 0.16211,0.38867 0.0474,0.16176 0.0809,0.19629 0.15234,0.35547 0.059,0.18577 0.079,0.23294 0.13672,0.36914 0.0352,0.0429 0.1045,0.42384 0.10547,0.33984 0.0709,0.15298 0.11899,0.31208 0.15429,0.47656 -0.0416,-0.16543 0.0855,0.16311 0.0957,0.19141 0.0594,0.18398 0.073,0.37669 0.082,0.56836 0.006,0.14384 0.007,0.2877 0.008,0.43164 5e-4,0.12191 0.002,0.24528 0.002,0.36719 1.7e-4,0.11861 -3e-5,0.23686 0,0.35547 2e-5,0.1356 -1e-5,0.27065 0,0.40625 v 0.31836 0.30664 0.30273 0.55469 c 0.004,0.0866 0.007,0.17336 0.006,0.25976 v 0.002 l 0.57422,21.7207 c 0.61388,23.19456 1.435,28.93364 5.40625,27.73633 1.65835,-1.33577 2.53093,-4.3454 2.64453,-5.16992 1.87075,-13.57744 1.84415,-13.53742 1.91407,-19.20703 -0.0425,-5.297 -0.003,1.57241 -0.0215,-8.41602 -0.0468,-25.29692 0.23783,-30.04251 1.8125,-29.83203 0.0732,-0.0384 0.15484,-0.0671 0.25195,-0.0742 0.21171,-0.0154 0.47513,0.0521 0.77149,0.23437 0.18571,0.11424 0.38227,0.20667 0.5625,0.33008 -0.002,0.0234 0.23402,0.14012 0.13086,0.0859 0.11135,-0.0173 0.5992,0.40577 0.32812,0.18359 -0.14952,-0.10379 0.30968,0.23913 0.2461,0.15821 -0.005,-0.006 -0.003,-0.007 -0.0117,-0.0156 0.0529,0.0341 0.0543,0.037 0.0351,0.0274 0.0218,0.0119 -0.0414,-0.0232 0.0781,0.0449 0.10052,0.0726 0.18578,0.16315 0.27148,0.25195 0.0762,0.0678 0.31195,0.4012 0.13477,0.1582 -2.1e-4,-0.003 0.0555,0.0665 0.10547,0.13086 0.0953,0.0914 0.15938,0.20689 0.23828,0.31055 0.0609,0.0787 0.26238,0.37611 0.0937,0.13281 -0.0539,0.0232 0.0135,0.0619 0.0703,0.10157 0.01,0.011 0.008,0.009 0.0156,0.0176 0.0274,0.0205 0.0475,0.0408 0.0469,0.0586 0.0192,0.0226 0.0421,0.0453 0.0859,0.10547 -0.0135,-0.0182 -0.0579,-0.0677 -0.041,-0.0527 0.23104,0.20554 0.0292,0.0494 0.19141,0.21875 0.0793,0.0859 0.17391,0.22359 0.19141,0.24219 0.14079,0.18465 0.0311,0.0325 0.23437,0.27148 -0.0885,-0.14146 0.17336,0.22035 0.19336,0.24805 0.0832,0.14039 0.16315,0.28203 0.24024,0.42578 -9.9e-4,-0.005 -0.007,-0.0177 -0.004,-0.0137 0.0796,0.11308 0.15126,0.23536 0.22656,0.35156 0.0971,0.16731 0.19156,0.33339 0.28906,0.5 0.0589,0.10942 0.13372,0.20894 0.19922,0.31446 -0.0234,-0.0871 0.16961,0.22953 0.19141,0.26953 -0.17395,-0.34342 0.18109,0.30173 0.18164,0.30273 -0.11249,-0.29393 0.10595,0.25263 0.0937,0.14063 0.12555,0.16197 0.13462,0.30388 0.23242,0.44336 0.0965,0.20148 0.19866,0.40104 0.28906,0.60546 0.0375,0.13937 0.10477,0.2535 0.16797,0.38086 0.0419,0.0821 0.0666,0.17092 0.0957,0.25782 0.047,0.14028 -0.0254,-0.0772 -0.0234,-0.0742 0.017,0.0303 0.0325,0.0611 0.0488,0.0918 0.0541,0.10958 0.094,0.22404 0.14648,0.33399 0.0748,0.19831 0.0921,0.2568 0.15234,0.40039 0.0561,0.17549 0.0831,0.25867 0.13868,0.38672 0.0641,0.14182 0.0975,0.29385 0.1289,0.44531 0.004,0.0209 -0.008,-0.0415 -0.0117,-0.0625 0.003,0.004 0.16118,0.44689 0.0977,0.23633 0.0655,0.11709 0.0971,0.24849 0.15625,0.36719 0.0625,0.16115 0.10542,0.26156 0.16992,0.39453 0.0704,0.18271 0.14107,0.36589 0.20117,0.55273 0.0322,0.15328 0.0771,0.26018 0.13282,0.40625 0.0187,0.007 0.14111,0.54111 0.0801,0.2793 0.072,0.1443 0.12095,0.29622 0.15625,0.45312 10e-4,0.007 0.005,0.0144 0.008,0.0215 0.0323,0.0712 0.061,0.14424 0.0859,0.21875 0.0533,0.26233 0.027,0.11895 0.11329,0.37304 0.0369,0.11835 0.0983,0.22778 0.14257,0.34571 0.0566,0.21108 0.0649,0.25692 0.11329,0.39062 0.0358,0.0185 0.14403,0.61694 0.0918,0.34766 0.0735,0.1601 0.11619,0.33117 0.14649,0.50391 0.006,0.0772 0.0478,0.149 0.0976,0.32812 0.0359,0.12413 0.0532,0.25266 0.0664,0.38086 0.0214,0.035 0.0756,0.1801 0.084,0.20312 0.0397,0.12269 0.0583,0.2509 0.0703,0.37891 0.003,0.0397 0.006,0.0794 0.008,0.11914 0.0427,0.11925 0.0733,0.24193 0.10156,0.36524 0.0292,0.12903 0.0316,0.28445 0.043,0.40039 0.0606,0.23399 0.0586,0.47945 0.10742,0.71484 0.0389,0.16287 0.082,0.32451 0.11719,0.48828 0.0297,0.1481 0.0428,0.2986 0.0508,0.44922 -0.007,0.15994 0.009,0.23664 0.0391,0.37305 0.0379,0.15825 0.0652,0.31892 0.084,0.48047 0.0156,0.1349 0.0185,0.2706 0.0215,0.40625 -0.007,0.0265 0.0453,0.21994 0.0742,0.38867 0.0323,0.19932 0.0466,0.40004 0.0566,0.60156 0.008,0.0588 0.006,0.12024 0.008,0.17969 0.002,-0.002 0.007,-0.007 0.0117,0.004 0.0789,0.2034 0.10194,0.41882 0.11524,0.63477 0.0218,0.35535 0.0663,0.70957 0.0976,1.06445 0.0215,0.24635 0.0377,0.49134 0.0508,0.73828 0.007,0.13412 0.01,0.27002 0.0117,0.4043 10e-4,0.13245 0.006,0.26404 0.006,0.39649 0.008,0.15773 0.0493,0.31877 0.0742,0.47851 0.0287,0.17062 0.0433,0.34313 0.0547,0.51563 -3e-4,0.003 1e-4,0.009 0,0.0117 0.007,0.016 0.002,0.007 0.0215,0.0527 0.053,0.12537 0.0848,0.25842 0.10547,0.39258 0.0146,0.098 0.0204,0.19602 0.0234,0.29492 0.003,0.10776 0.01,0.21643 0.01,0.32422 -0.0121,0.19601 0.0213,0.38817 0.0449,0.58203 0.0321,0.29181 0.053,0.58406 0.0723,0.87695 0.009,0.14152 0.0155,0.28206 0.0195,0.42383 0.003,0.0879 0.0107,0.17577 0.0117,0.26367 4.5e-4,0.10437 -6e-5,0.2101 0,0.31446 0.005,0.0219 0.002,0.0442 0,0.0664 0.004,0.003 0.0106,0.0207 0.0156,0.0371 0.008,0.0277 0.0135,0.0561 0.0215,0.084 0.0452,0.14933 0.0673,0.30214 0.082,0.45703 0.0107,0.12046 0.0156,0.24242 0.0176,0.36328 0.003,0.12435 0.006,0.24867 0.006,0.37304 0.0565,0.38402 0.11667,0.76747 0.16797,1.15235 0.0334,0.27519 0.068,0.54997 0.0918,0.82617 -0.021,-0.0567 -0.0185,-0.002 -0.0117,0.0664 0.004,0.007 0.006,-2.3e-4 0.0117,0.0117 0.0782,0.14091 0.10786,0.29947 0.13086,0.45703 0.0184,0.14443 0.0224,0.29017 0.0254,0.43554 0.003,0.12365 0.0107,0.24743 0.0117,0.3711 3.6e-4,0.10142 0.0117,0.20131 0.0117,0.30273 5e-5,0.10494 -1e-5,0.20951 0,0.31445 v 0.43165 0.82421 0.47461 0.35157 0.53906 c 0.0398,0.26596 0.0637,0.533 0.0879,0.80078 0.0172,0.20873 0.032,0.41772 0.041,0.62695 -0.002,0.18816 0.0117,0.37221 0.0332,0.5586 0.0495,0.44122 0.0239,0.88756 0.0117,1.33007 -0.009,0.21296 -0.0174,0.42568 -0.0254,0.63868 -10e-4,0.0351 4.7e-4,0.0704 -0.002,0.10547 0.0589,0.18483 0.11623,0.37011 0.16992,0.55664 0.12065,0.41946 0.28233,0.83526 0.27734,1.27734 -0.0336,0.0221 -0.065,0.0487 -0.0976,0.0723 3.23044,1.64361 6.62586,4.87047 10.10156,9.0332 -0.21152,-2.30276 -0.39557,-4.60858 -0.40625,-6.92188 -0.0934,-2.57103 -0.23652,-5.14097 -0.44141,-7.70507 -0.2574,-2.97962 -0.56905,-5.95074 -1.06054,-8.90235 -0.2948,-1.71176 -0.62924,-3.42857 -0.69922,-5.16797 -0.0853,-1.07071 -0.20517,-2.13929 -0.34375,-3.20508 -0.305,-2.33131 -0.71888,-4.64483 -1.09766,-6.96484 -0.2812,-1.60606 -0.66834,-3.18508 -1.01953,-4.77539 -0.0203,-0.0909 0.0569,0.17723 0.0859,0.26563 -0.3624,-1.28602 -0.62893,-2.32229 -0.96289,-3.57032 -0.36862,-1.83678 -0.67164,-3.67828 -0.97461,-5.52734 -0.617,-3.43538 -1.32593,-6.85345 -1.86133,-10.30274 -0.53321,-2.78007 -1.05113,-5.56192 -2,-8.23828 -0.33346,-0.91295 -0.64183,-1.84757 -1.00781,-2.74804 -0.007,-0.018 -0.85446,-1.98357 -0.90625,-2.13086 -0.0259,-0.0736 0.0903,0.12926 0.13476,0.19336 -0.88908,-1.73928 -1.68382,-3.52958 -2.83203,-5.12305 -1.84621,-2.91478 -3.69851,-5.82452 -5.59765,-8.70508 -1.96903,-2.64722 -3.96601,-5.27667 -6.01954,-7.85937 -1.46286,-1.7339 -2.87619,-3.50339 -4.5039,-5.08985 -1.10732,-1.33168 -2.53002,-2.38155 -3.85352,-3.48437 -1.38259,-1.03636 -2.86372,-1.97267 -4.35937,-2.91602 -1.43006,-0.92313 -2.83068,-1.8845 -4.20508,-2.88867 -1.81837,-1.35476 -3.6008,-2.76041 -5.30859,-4.25195 -1.68984,-1.53125 -3.36307,-3.07726 -4.94336,-4.72266 -1.22594,-1.32301 -2.79798,-2.61068 -4.28711,-4.47461 -3.0337,-4.15382 -4.833,-9.02748 -4.12696,-14.26367 0.17993,-1.5384 0.40299,-3.07155 0.72266,-4.58789 0.46374,-2.15033 0.8485,-3.4851 1.3457,-5.54883 0.50549,-1.72493 0.6546,-2.56883 1.32813,-4.17578 0.0618,-0.14745 -0.0879,0.30751 -0.13281,0.46094 0.38117,-1.18852 0.44192,-1.36588 0.71289,-2.07227 -0.0816,0.3194 -0.0969,0.66736 -0.27344,0.94336 -0.24344,0.38062 0.0518,-0.38347 0.39453,-1.29687 -3.7e-4,6.6e-4 0.0189,-0.0544 0.0137,-0.041 0.30441,-0.81225 0.69478,-1.87537 0.34766,-1.13867 0.7539,-1.99075 1.61809,-3.95546 2.7207,-5.7793 1.68291,-2.41452 3.52604,-4.69337 5.90234,-6.46875 1.77162,-1.37117 3.64356,-2.61503 5.67774,-3.56836 1.5228,-0.7176 3.09398,-1.32382 4.66797,-1.91992 -0.12742,-0.71416 -0.25545,-1.42842 -0.38281,-2.14258 -0.0188,-0.47265 0.16637,0.79491 0.041,0.0547 -0.13513,-0.50242 -1.02666,-4.69712 -0.66016,-3.02734 0.009,0.0399 -0.0164,-0.0808 -0.0234,-0.1211 0.24601,0.69352 -0.3481,-1.20018 -0.40039,-1.26953 -0.48445,-1.53639 -0.61221,-1.96737 -1.19922,-3.83984 -0.77324,-2.61418 -0.44473,-1.83437 -0.94922,-3.75 -0.372,-1.542147 -0.63919,-3.099544 -0.91211,-4.660164 -0.4679,-2.079021 -0.92139,-4.161551 -1.30664,-6.257813 -0.17536,-1.412722 -0.63464,-2.778686 -0.75586,-4.201172 -0.24866,-0.594103 -1.18403,-2.708566 -0.54492,-1.636718 -0.3555,-1.247974 -0.81159,-2.471753 -1.19141,-3.712891 -0.7628,-2.289944 8.74488,-7.49492 8.20703,-9.847656 -0.69095,-2.560348 -3.7975,-4.253405 -4.39062,-6.837891 -0.6023,-2.45998 1.06988,-5.717609 0.73047,-8.232422 -0.39242,-2.530834 -0.93039,-7.570778 -1.15625,-10.121093 -0.0182,-0.320685 -0.28067,-0.504845 -0.64649,-0.632813 z m -74.99219,29.558594 c -0.0189,0.08486 -0.0494,0.207264 -0.0781,0.322265 0.0324,-0.06808 0.0586,-0.145416 0.0859,-0.226562 -0.003,-0.0355 -0.005,-0.0549 -0.008,-0.0957 z M 81.830262,100.58266 c -0.442325,0.64833 -0.840006,1.32657 -1.283204,1.97266 -1.917554,2.7003 -3.799988,5.40785 -5.445312,8.28125 -0.943927,1.63154 -1.685182,3.37002 -2.474609,5.08008 -0.55222,1.33419 -1.244385,2.6176 -1.794922,3.94726 v 0.002 c 2.167574,0.3275 4.332251,0.67288 6.484375,1.0957 0.325062,0.0535 0.611919,0.20257 0.93164,0.26953 -0.02606,-0.7002 -0.0342,-1.41895 0,-2.17578 0.04778,-1.05738 0.103514,-2.11497 0.214844,-3.16797 0.06425,-0.50279 0.892077,-5.51338 0.451172,-1.96875 0.08042,-1.26243 0.244142,-2.52123 0.638672,-3.72852 5.5e-5,-0.0482 -1.4e-4,-0.0963 0,-0.14453 0.0017,-0.38797 0.0037,-0.77616 0.01172,-1.16406 0.01466,-0.65174 0.04062,-1.3043 0.107421,-1.95312 0.19713,-1.52389 0.528959,-3.03503 1.259766,-4.4043 0.0919,-0.16861 0.184441,-0.33669 0.275391,-0.50586 0.17616,-0.48959 0.387674,-0.96725 0.623047,-1.43555 z m 240.148438,2.53321 c 0.0191,0.0511 0.0356,0.10312 0.0547,0.15429 -0.007,-0.0578 0.0229,-0.13617 -0.0547,-0.15429 z m -220.80859,1.42773 c -0.21148,0.69061 -0.25238,0.86328 -0.34375,1.20313 0.10564,-0.29814 0.20175,-0.60122 0.28515,-0.91407 -0.0845,0.34737 0.0872,-0.38254 0.0586,-0.28906 z m -20.658208,3.38281 c 0.07189,-0.15368 -0.159356,0.2996 -0.222656,0.45703 -0.01119,0.0278 -0.01282,0.0359 -0.02344,0.0625 0.0838,-0.17221 0.164964,-0.34609 0.246094,-0.51953 z m 50.316408,2 c -28.49233,0 -32.151498,0.62458 -32.160158,5.50586 0.01253,0.0878 0.02269,0.1753 0.03125,0.26367 0.0088,0.0969 0.01553,0.19378 0.01953,0.29102 0.003,0.0713 0.0034,0.14155 0.0039,0.21289 3.5e-4,0.0464 -9e-5,0.0943 0,0.14063 7e-5,0.0432 -1e-5,0.0857 0,0.1289 1e-5,0.0656 -1e-5,0.13164 0,0.19727 v 0.20117 c 0.01,0.0217 0.03381,0.11863 0.03711,0.13281 0.0197,0.0957 0.02816,0.19363 0.03516,0.29102 0.005,0.0739 0.0069,0.14861 0.0078,0.22265 6.28e-4,0.0832 -1.5e-4,0.16486 0,0.24805 7.8e-5,0.0782 -2e-5,0.15812 0,0.23633 0.0033,0.11669 -0.02923,0.22873 -0.05273,0.3418 -0.162017,0.78063 -0.951892,0.61643 -0.789062,-0.16407 0.0152,-0.0724 0.03664,-0.14086 0.03711,-0.17773 -1.9e-5,-0.0726 7.4e-5,-0.14603 0,-0.21875 -0.03118,0.12045 -0.09231,0.24059 -0.08789,0.36133 -0.04916,0.59127 -0.08037,1.1827 -0.105469,1.77539 -0.239665,5.64681 -2.08147,9.56139 -4.542969,11.81054 0.451164,0.83113 0.856795,1.6914 1.207031,2.57618 1.273802,3.50288 1.342304,7.10323 0.50586,10.52734 -0.0328,0.13428 -0.04248,0.27254 -0.07813,0.40625 0.943236,-0.0821 1.882441,-0.18968 2.804687,-0.41602 0.554539,-0.11421 0.759211,-0.16668 0.955078,-0.21875 1.604942,-1.51102 3.435262,-2.74639 5.359372,-3.8164 2.54732,-1.35155 5.32031,-2.0846 8.1582,-2.48633 2.71448,-0.33026 5.23854,0.0885 7.76367,0.68359 2.08189,-3.03605 6.4532,-5.34961 13.11524,-5.34961 h 14.52148 25.87696 c 5.22213,-0.056 10.43846,-0.01 15.65429,0.24805 2.8429,0.14699 5.68356,0.31918 8.52931,0.20313 1.90784,-0.0941 3.81298,-0.22023 5.72069,-0.31641 1.58413,-0.0766 3.17025,-0.093 4.75587,-0.11133 1.70022,-0.0854 3.38609,0.16346 5.06445,0.39453 4.91775,0.64932 7.73041,3.06597 9.79687,7.52539 0.25053,1.11658 0.60425,2.21637 0.75195,3.35157 0.42371,3.25614 -0.53705,7.56175 -1.23047,10.75781 -0.81262,3.77961 -1.92606,7.48447 -2.91796,11.21875 -0.82838,2.88743 -1.67235,5.76647 -2.375,8.6875 -0.62736,2.55292 -1.33392,5.08887 -1.89062,7.6582 -0.4985,1.89787 -0.89727,3.81008 -1.14453,5.75586 -0.17902,1.64282 -0.24092,3.29451 -0.29103,4.94531 -0.0266,0.98039 -0.0414,1.96273 -0.0547,2.94336 -0.032,2.35039 -0.35245,4.40637 -0.88283,6.17969 1.6006,-2.31103 3.18021,-4.63591 4.63087,-7.04492 0.29728,-0.52288 0.49053,-0.85157 0.71875,-1.24805 0.17888,-0.41692 0.19577,-1.34475 0.58593,-1.1543 0.0388,0.0189 0.0649,0.0281 0.10353,0.0469 0.39098,-0.58334 0.72455,-0.97663 1.08007,-1.04492 0.42702,-0.082 0.98093,0.25109 1.74805,0.8125 0.41485,-0.73759 0.88646,-1.44169 1.27734,-2.19141 0.93209,-1.77866 1.93335,-3.52342 2.95899,-5.25 0.47826,-0.83342 0.94526,-1.66924 1.45898,-2.48047 0.0163,-0.0505 -0.0398,0.13152 0.0957,-0.31445 0.13309,-0.37895 0.21148,-0.7718 0.29297,-1.16406 0.40734,-2.02542 1.15062,-2.72232 2.31054,-2.69336 1.9332,0.0482 5.02622,2.11343 9.66602,3.40234 0.26281,0.073 0.0244,0.54444 0.0449,0.81641 0.0231,0.30685 0.0754,0.61192 0.10742,0.91797 0.13386,1.80983 0.45491,3.59044 0.8457,5.35937 0.63344,2.38814 1.40217,4.73464 2.23243,7.06055 0.7907,2.15792 1.6542,4.28787 2.48632,6.42969 0.7523,1.95128 1.69576,3.81393 2.60547,5.69336 1.05896,2.30279 1.97568,4.66553 2.91797,7.01757 0.93171,2.11711 1.87681,4.22831 2.80469,6.34766 0.9182,2.12307 1.706,4.30081 2.65625,6.41016 0.91505,1.78536 1.78685,3.59145 2.75391,5.34961 1.07284,1.93302 2.26155,3.80481 3.49609,5.63867 1.50024,2.17952 3.00414,4.35615 4.44922,6.57226 1.33299,2.11513 2.87274,4.08484 4.36133,6.08985 1.67817,2.14989 3.22187,4.39859 4.71484,6.67968 1.08766,1.58551 2.09961,3.22461 3.03906,4.90235 0.81181,1.37421 1.53254,2.79426 2.22266,4.23242 0.89403,1.74642 1.96379,3.39509 2.97266,5.07617 1.32388,2.0899 2.46119,4.29126 3.58203,6.49414 1.16129,2.67798 2.43678,5.29754 3.73242,7.91211 1.6425,3.22732 3.08802,6.5468 4.28515,9.96289 0.50339,1.72505 1.09257,3.42451 1.58594,5.15235 0.61038,1.98656 0.48212,4.01597 0.0859,6.02148 -0.33558,1.35299 -0.72043,2.69356 -1.09179,4.03711 -0.35737,1.64522 -0.75879,3.27943 -1.13867,4.91992 -0.31146,1.52455 -0.65701,3.04242 -0.92187,4.57617 -0.14867,1.1157 -0.27285,2.22742 -0.54688,3.32227 -0.0289,0.10367 -0.0532,0.20842 -0.0801,0.3125 0.23953,-0.16675 0.47165,-0.3434 0.71289,-0.50781 2.36842,-1.67082 4.81862,-3.21192 7.28711,-4.72852 2.21244,-1.2773 4.41419,-2.56139 6.57227,-3.92773 1.54354,-7.7495 6.21958,-11.3689 10.60156,-11.3125 5.25547,0.0676 10.08362,5.41905 8.58202,15.25 0.75604,0.0268 1.60382,-0.008 2.25977,0.082 -0.077,-1.90185 -0.0582,-1.35495 -0.16016,-4.27149 -0.0397,-1.70744 -0.023,-3.4154 -0.0293,-5.12304 -5.47417,-1.52229 -8.4189,-8.8238 -2.65233,-18.21289 0.17721,-0.28853 0.30835,-0.60408 0.45508,-0.91016 3.6e-4,-0.004 -3.8e-4,0.001 0,-0.006 0.0288,-0.44146 0.0424,-0.88398 0.0527,-1.32617 0.004,-0.17065 0.004,-0.34104 0.006,-0.51172 -0.0846,-0.31479 -0.25646,-1.31616 -0.36523,-1.58203 -0.41413,-1.32032 -0.77182,-2.65644 -1.10156,-4 -0.0306,-0.12726 -0.064,-0.25492 -0.0918,-0.38281 -0.028,-0.12888 -0.0534,-0.25755 -0.0801,-0.38672 -0.0258,-0.0753 -0.0533,-0.14968 -0.0801,-0.22461 -0.31571,-0.86075 -0.6182,-1.7307 -0.89062,-2.60156 -0.32657,-1.37824 -0.88194,-2.66524 -1.42383,-3.9668 -0.58545,-1.18 -1.14565,-2.36942 -1.64648,-3.58789 -0.88234,-1.72565 1.40512,2.68724 -0.65625,-1.21289 -0.0228,-0.0534 -0.0455,-0.1068 -0.0684,-0.16016 -0.30221,-0.0787 -0.79523,-1.65947 -0.55274,-1.05469 -0.0655,-0.13372 -0.0161,-0.0326 -0.0684,-0.13867 -0.66854,-0.84809 -1.4804,-1.6302 -2.30859,-2.66015 -1.0355,-1.33255 -0.0321,-0.0428 -1.46289,-1.69141 -0.79486,-0.89983 -1.46297,-1.90072 -2.23047,-2.82227 -1.07053,-1.18913 -2.03369,-2.46965 -2.9668,-3.76757 -0.77441,-0.92152 -1.37269,-1.69073 -1.98633,-2.43555 -0.84808,-1.07327 -1.40929,-1.83406 -2.16015,-2.85547 -0.63942,-0.9886 -1.33942,-1.86606 -2.05078,-2.71875 -0.69393,-0.83316 -1.47206,-1.55756 -2.22852,-2.33203 -0.54079,-0.60043 -0.90759,-0.8767 -1.50781,-1.40235 -1.75532,-1.85408 -1.60168,-1.64914 -2.77539,-3.0039 0.12907,0.14572 0.53121,0.56794 0.38672,0.4375 -0.23853,-0.21535 -0.45037,-0.4587 -0.66993,-0.69336 -0.10544,-0.1127 -0.30322,-0.29346 -0.39453,-0.40234 0.019,0.0198 -0.0335,-0.0344 -0.0117,-0.0117 -0.50587,-0.37519 -1.33497,-1.10265 -1.93164,-1.63672 -0.55639,-0.44984 -1.45181,-1.19278 -2.30859,-1.91406 -1.02913,-0.88935 -0.79519,-0.68238 -1.60742,-1.24805 -1.18852,-0.86469 -2.37261,-1.73093 -3.52735,-2.64063 -1.33383,-1.08496 -2.65731,-2.18342 -3.99414,-3.26562 -0.93967,-0.78633 -1.96525,-1.46266 -2.9414,-2.20313 -0.6543,-0.51752 -1.44471,-1.07368 -2.32422,-1.7207 -1.4232,-1.07211 -2.71756,-2.29969 -4.07813,-3.44727 -1.21655,-1.02107 -2.42456,-2.05422 -3.61132,-3.10937 0.29167,0.45373 -3.06902,-2.75923 -2.06055,-1.74414 -0.59543,-0.50941 -1.13666,-1.07557 -1.67187,-1.64649 -0.80077,-0.71181 -0.85354,-0.70478 -2.03906,-1.71875 -0.8805,-0.76721 -1.68974,-1.43173 -2.64259,-2.28906 -0.82601,-0.62721 -1.54843,-1.37273 -2.33006,-2.05078 -0.92695,-0.90664 -1.91056,-1.79232 -2.84961,-2.86914 -0.84146,-0.99412 -1.61583,-1.99532 -2.39649,-3.02734 -0.88357,-1.33096 -1.42905,-1.93686 -2.35742,-3.20508 -1.17179,-1.58822 -2.19362,-3.27631 -3.17188,-4.98828 -1.01648,-1.6596 -2.00136,-3.33948 -2.93945,-5.04492 -0.66854,-1.12298 -1.32688,-2.24921 -1.99414,-3.37305 -0.36459,-0.62828 -0.66417,-1.28725 -0.9668,-1.94531 -0.4837,-0.82518 -0.91159,-1.68003 -1.23046,-2.58204 0.0172,0.0626 0.0687,0.18499 0.0332,0.1504 -0.15431,-0.15043 -0.16004,-0.39957 -0.24024,-0.59961 -0.4182,-1.31407 -0.81321,-2.55624 -1.23828,-3.86719 -0.51854,-1.36386 -0.88953,-2.77662 -1.37695,-4.15039 -0.54256,-1.50487 -0.93397,-3.05224 -1.2168,-4.625 0.6292,2.8172 -0.51912,-1.57891 -0.58593,-1.88477 -0.30825,-2.11546 -0.27956,-1.86073 -0.54883,-3.47656 -0.19458,-1.30916 -0.53184,-2.59233 -0.77149,-3.89648 -0.19747,-1.1059 -0.34478,-2.21963 -0.44922,-3.3379 -0.0766,-0.75315 -0.0966,-1.50916 -0.10937,-2.26562 -0.01,-0.76396 -0.0117,-1.52896 -0.0137,-2.29297 -0.0453,-1.49602 0.0418,-2.9828 0.25195,-4.46484 0.18726,-1.10033 0.26061,-2.21473 0.31641,-3.32813 0.15181,-1.77782 0.43194,-3.54177 0.61718,-5.3164 0.0754,-1.43073 0.29994,-2.84104 0.56055,-4.24805 0.18496,-1.21167 0.33383,-2.42536 0.57812,-3.62891 0.13383,-0.79412 0.0416,-0.27382 0.31054,-1.55078 0.38718,-1.83769 0.94018,-3.42222 1.58399,-4.83203 -3.51604,-0.12484 -7.03352,-0.21236 -10.54687,-0.41406 -4.32998,-0.23473 -8.67404,-0.35494 -12.98047,-0.9043 -1.89878,-0.23225 -3.79921,-0.26484 -5.71093,-0.1875 -3.11569,0.0498 -6.22983,0.12936 -9.34375,0.23242 -4.44776,0.14914 -8.89717,0.39247 -13.34766,0.38086 -2.53996,-0.0143 -5.07893,-0.0251 -7.61719,-0.1289 -2.79581,-0.12669 -5.61247,-0.27662 -8.33398,-0.98047 -3.32836,-1.15525 -6.32635,-2.77625 -7.98438,-6.16992 -0.12963,-0.49597 -0.25819,-0.9924 -0.38867,-1.48829 -0.12105,0.0646 -0.24294,0.12646 -0.37109,0.17774 -0.14867,0.0605 -0.29864,0.11872 -0.45508,0.15625 -0.24239,0.082 -0.4998,0.0521 -0.65039,-0.17969 -0.0452,-0.0969 -0.0823,-0.1909 -0.10742,-0.29492 -0.012,-0.0845 -0.0226,-0.16486 -0.0176,-0.25 -2e-5,-0.0737 5e-5,-0.14898 0,-0.22266 -9e-5,-0.14383 3.4e-4,-0.28781 0,-0.43164 0,-0.14813 0.001,-0.29524 -0.004,-0.44336 -0.002,-0.087 -0.004,-0.17513 -0.0137,-0.26172 -0.0113,-0.0853 -0.0337,-0.1682 -0.0527,-0.25195 -0.0157,-0.11349 -0.0213,-0.22557 -0.0293,-0.33984 -0.0132,-0.14563 -0.0323,-0.29204 -0.0606,-0.43555 -0.0322,-0.19001 -0.0528,-0.38102 -0.0762,-0.57227 -0.0125,-0.15083 -0.0125,-0.30204 -0.0215,-0.45312 -0.01,-0.13228 -0.0215,-0.26387 -0.0449,-0.39453 -0.0224,-0.14073 -0.0311,-0.28162 -0.0371,-0.42383 -0.009,-0.10423 -0.019,-0.20788 -0.0488,-0.30859 -0.0278,-0.11289 -0.0449,-0.22807 -0.0684,-0.3418 -0.0279,-0.12199 -0.056,-0.24329 -0.0742,-0.36719 -0.0384,-0.1638 -0.0875,-0.32577 -0.12305,-0.49023 -0.0305,-0.12707 -0.0641,-0.25398 -0.0859,-0.38281 -0.011,-0.0653 -0.0217,-0.12974 -0.0469,-0.19141 -0.0414,-0.10173 -0.0713,-0.20769 -0.10938,-0.31055 -0.0313,-0.0845 -0.0545,-0.16294 -0.0918,-0.24609 -0.001,-0.004 -0.007,-0.0138 -0.004,-0.0117 -0.0161,-0.02 -0.0318,-0.0404 -0.0449,-0.0625 -0.0426,-0.0628 -0.0904,-0.12262 -0.12305,-0.19141 -0.0351,-0.0626 -0.0828,-0.11599 -0.12304,-0.17382 -0.0376,-0.038 -0.0748,-0.0761 -0.11329,-0.11329 0.0526,0.0185 -0.0954,-0.0529 -0.11718,-0.0742 -0.0291,-0.0151 -0.0311,-0.0176 -0.041,-0.0234 -0.009,-0.002 -0.0274,-0.008 -0.0781,-0.0274 -0.0836,-0.0289 -0.1651,-0.0618 -0.25,-0.0859 -0.11345,-0.0361 -0.22161,-0.0844 -0.33399,-0.12305 -0.097,-0.0358 -0.19271,-0.0771 -0.28711,-0.11914 -0.13318,-0.0464 -0.10195,-0.0466 -0.22461,-0.0801 -0.10695,-0.0436 -0.14932,-0.0734 -0.20312,-0.0898 -0.0637,-0.0259 -0.12556,-0.0512 -0.19336,-0.0645 -0.0191,-0.006 -0.0376,-0.0111 -0.0566,-0.0176 -0.0107,-0.004 -0.0316,-0.0105 -0.0371,-0.0137 -0.0232,-6.6e-4 -0.0476,-0.002 -0.0527,-0.008 -0.0924,-0.016 -0.18308,-0.0368 -0.27148,-0.0684 -0.0541,-0.0178 -0.1894,-0.0327 -0.2832,-0.0508 -0.15594,-0.0293 -0.31035,-0.0699 -0.4668,-0.0957 -0.15182,-0.025 -0.20835,-0.10118 -0.29297,-0.16406 -0.0928,0.0107 -0.20193,0.003 -0.32422,-0.0293 -0.14559,-0.038 -0.29325,-0.0679 -0.4414,-0.0937 -0.0934,-0.0191 -0.18821,-0.0249 -0.28321,-0.0293 -0.0702,-0.005 -0.13841,-0.0199 -0.20703,-0.0352 -5.1351,-0.71782 -12.89063,-0.91407 -26.56445,-0.91407 z m 189.19922,6.76367 c -0.18558,0.37196 -0.37824,0.74025 -0.58008,1.12305 -0.12131,0.23006 0.24994,-0.43699 0.5625,-1.01172 0.006,-0.0371 0.0113,-0.0743 0.0176,-0.11133 z m -155.98828,2.15821 c 4e-5,0.0169 -5e-5,0.0339 0,0.0508 3.4e-4,0.14441 -9e-5,0.28918 0,0.43359 2e-5,0.0307 -2e-5,0.0611 0,0.0918 0.0405,-0.0156 0.0807,-0.0305 0.12109,-0.0469 0.0106,-0.004 0.0208,-0.009 0.0312,-0.0137 -0.006,-0.006 -0.0121,-0.01 -0.0176,-0.0156 -0.0997,-0.13446 -0.116,-0.29195 -0.125,-0.45313 -0.003,-0.0157 -0.007,-0.0312 -0.01,-0.0469 z m 147.39062,12.11719 c -0.21304,0.0879 -0.26289,0.11339 -0.42773,0.18359 9.8e-4,1.2e-4 0.32892,-0.10755 0.21093,-0.0664 0.0726,-0.0388 0.2929,-0.14856 0.2168,-0.11718 z m -1.2168,0.43359 c -0.59826,0.14016 -1.21299,0.27788 -0.73242,0.15039 0.16149,-0.0428 0.36008,0.0968 0.4961,-0.0762 0.0481,-0.0113 0.11064,-0.0348 0.23632,-0.0742 z m -217.92773,2.72851 c -2.187651,-0.11315 -5.375394,1.72583 -8.869141,4.15235 0.264419,0.26086 0.488309,0.48238 0.773438,0.77148 0.189333,0.19135 0.410346,0.34944 0.601562,0.53907 1.691477,0.28541 3.320607,0.89631 4.935547,1.46093 1.071631,0.37984 2.14683,0.76439 3.181641,1.23828 1.204013,0.30825 1.887673,1.01723 2.060546,1.78125 1.039041,-7.10002 -0.161792,-9.81295 -2.683593,-9.94336 z m 7.662109,10.07032 c -0.04715,-0.0171 -0.09483,0.0107 -0.142578,0.0215 -0.1243,0.0533 -0.194506,0.0813 -0.322266,0.13477 0.20264,-0.0509 0.624015,-0.0986 0.464844,-0.15625 z m 107.958981,65.96484 c -2.41903,1.43574 -5.21241,1.50259 -7.64257,0.18164 -0.25151,0.3338 -0.47809,0.68996 -0.73438,1.01953 0.54808,2.53502 0.91457,5.1017 1.11523,7.68164 0.68927,-0.86528 1.46105,-1.6373 2.40235,-2.35547 0.0785,-0.0782 0.0934,-0.10355 0.14453,-0.15039 0.005,-0.003 0.009,-0.006 0.0137,-0.01 1.27917,-1.21747 2.11525,-3.25416 3.32031,-4.44727 0.46151,-0.63805 0.91804,-1.28193 1.38086,-1.91992 z m -4.70117,6.36719 c -0.0508,0.0483 -0.0961,0.10682 -0.14844,0.15234 0.25656,-0.19537 0.48483,-0.39988 0.76954,-0.58789 0.21052,-0.13937 -0.3965,0.27839 -0.6211,0.43555 z m -0.14844,0.15234 c -0.003,0.003 -0.006,0.005 -0.01,0.008 -0.10088,0.10044 -0.2564,0.24729 -0.18555,0.19336 0.0718,-0.0547 0.12637,-0.14116 0.19531,-0.20117 z m 106.22266,-5.29492 c -0.15472,2.61852 -0.0763,5.64511 -0.16406,8.34375 0.14303,0.018 0.28527,0.0368 0.42773,0.0586 0.39965,0.0624 0.79954,0.12748 1.20117,0.17188 0.23032,-0.33784 0.47247,-0.6667 0.70899,-1 0.58044,-2.27943 0.70269,-1.97673 0.39844,-4.58789 -0.19,-1.63063 -0.25267,-1.07638 -0.41797,-1.42969 -0.34762,-0.45738 -0.75149,-0.86534 -1.20508,-1.2168 -0.0381,-0.0296 -0.15673,-0.0756 -0.11133,-0.0918 0.0208,-0.007 0.0604,0.007 0.0957,0.0156 -0.19044,-0.0643 -0.38349,-0.12321 -0.57421,-0.18554 -0.11992,-0.033 -0.23933,-0.0584 -0.35938,-0.0781 z m 2.1543,1.55664 c 0.0698,0.0918 0.18142,0.14418 0.24218,0.24414 -0.0996,-0.12631 -0.3575,-0.52074 -0.3164,-0.36523 0.0364,0.13768 0.0463,0.0614 0.0742,0.12109 z m -115.99024,3.60156 c -0.0491,-0.0608 -0.7245,0.28603 -1.4375,0.65821 -0.45872,0.39095 -0.91644,0.78272 -1.40234,1.15039 -0.51149,0.57537 -1.00644,1.12199 -1.53906,1.73633 2.44909,-1.78702 4.51398,-3.37857 4.3789,-3.54493 z m 156.41992,3.60743 c 0.10373,0.0728 0.20769,0.14612 0.3125,0.21679 0.0216,0.0139 0.0446,0.0255 0.0664,0.0391 0.0158,-0.002 0.0311,-0.004 0.0469,-0.006 -0.0759,-0.0449 -0.15248,-0.0901 -0.22461,-0.14063 -0.0664,-0.0368 -0.13423,-0.0713 -0.20118,-0.10937 z m -162.45898,0.94726 c -0.19938,0.1877 -0.40127,0.37141 -0.60547,0.55274 0.32252,-0.22662 0.28019,-0.18629 0.61524,-0.42383 1.4e-4,-0.0497 -0.01,-0.0613 -0.01,-0.12891 z m 119.65039,0.082 c -8.7e-4,0.011 5e-4,0.024 -0.002,0.0352 0.007,-0.0104 0.0146,-0.0225 0.0215,-0.0332 -0.006,-8.6e-4 -0.013,2e-4 -0.0195,-0.002 z m -121.92773,1.48438 c -0.55588,0.3852 -1.0887,0.80093 -1.64063,1.1914 -0.0609,0.0648 -0.11842,0.1309 -0.17969,0.19532 0.27684,-0.16931 1.1122,-0.76881 1.86719,-1.28516 -0.007,-0.0372 -0.0178,-0.073 -0.0469,-0.10156 z m -3.42774,2.48828 c -0.0379,0.0295 -0.0794,0.0543 -0.11719,0.084 -0.02,0.0157 0.11793,-0.0821 0.0996,-0.0684 0.006,-0.005 0.012,-0.0101 0.0176,-0.0156 z m -0.86133,0.44531 c -0.17882,0.12375 -0.35636,0.24926 -0.53515,0.37305 -0.22904,0.29088 -0.52636,0.66529 -0.61133,0.77734 0.13136,-0.0763 0.22952,-0.14757 0.36133,-0.22461 0.0137,-0.0162 0.0313,-0.0267 0.0449,-0.043 0.54026,-0.63672 0.33957,-0.41194 0.74023,-0.88281 z m -0.57421,0.40234 -0.0254,0.0176 c -0.0777,0.0842 -0.17935,0.19371 -0.26367,0.28516 -0.14985,0.19552 -0.22818,0.30664 -0.3789,0.5 0.0189,-0.011 0.0299,-0.0163 0.0488,-0.0273 0.20904,-0.25638 0.41369,-0.51609 0.61915,-0.7754 z m -0.66797,0.80274 c -0.0697,0.0404 -0.10842,0.0635 -0.17774,0.10351 -0.30284,0.32882 -0.44239,0.47444 -0.81054,0.875 0.15485,-0.10748 0.30427,-0.21006 0.44921,-0.3164 0.0457,-0.0419 0.0896,-0.0862 0.13477,-0.12891 0.15127,-0.19126 0.24353,-0.32696 0.4043,-0.5332 z m -0.17774,0.10351 c 0.20847,-0.22634 0.3784,-0.41018 0.55664,-0.60351 0.0643,-0.0839 0.0992,-0.13197 0.16211,-0.21484 -1.09497,0.75829 -2.1833,1.5259 -3.27344,2.29101 0.75751,-0.4387 1.56093,-0.89843 2.55469,-1.47266 z m -0.72265,0.89844 c -0.0872,0.0549 -0.17465,0.1107 -0.26172,0.16406 -0.10661,0.11579 -0.11273,0.12264 -0.22461,0.24415 0.12864,-0.10411 0.2365,-0.1867 0.35937,-0.28711 0.0447,-0.037 0.0827,-0.0835 0.12696,-0.1211 z m -0.21875,0.28906 c -0.15334,0.12011 -0.35276,0.26366 -0.51954,0.39258 -0.54799,0.59506 -0.38003,0.40955 -1.04687,1.13282 -0.31828,0.34519 0.6998,-0.62837 1.0293,-0.9629 0.18189,-0.18467 0.355,-0.37776 0.53711,-0.5625 z m -0.0996,0.0117 c -0.0648,0.0445 -0.12844,0.0905 -0.19336,0.13477 -0.0628,0.0682 -0.0605,0.0667 -0.125,0.13672 0.11076,-0.0838 0.20971,-0.18474 0.31836,-0.27149 z m -0.26368,0.1836 c -0.73051,0.49796 -1.43976,1.0266 -2.17187,1.52343 0.60859,-0.3807 1.19668,-0.78534 1.77539,-1.20312 0.14956,-0.11919 0.25242,-0.20405 0.39648,-0.32031 z m -0.4707,0.17773 c -0.73916,0.41214 -1.46376,0.75513 -2.14844,0.98242 -0.16866,0.056 -0.10985,0.005 -0.18164,0.0156 -0.65053,0.46206 -1.31547,0.90476 -1.96093,1.37305 -0.36821,0.26684 0.82473,-0.38474 1.22656,-0.59766 0.91476,-0.48471 2.01446,-1.11473 3.06445,-1.77344 z m -1.16601,1.13867 c -0.1352,0.1016 -0.23288,0.17704 -0.36914,0.2793 0.0344,-0.0247 0.0644,-0.0366 0.0937,-0.0586 0.10906,-0.0817 0.16583,-0.13783 0.27539,-0.22071 z m 167.26171,8.96485 c -0.0156,0.004 -0.0313,0.008 -0.0469,0.0117 -9.45795,2.38611 -2.87564,5.64749 3.62109,8.97461 0.13364,-0.3118 0.26347,-0.63194 0.40039,-0.9629 0.54145,-1.82455 0.17806,-3.26449 -0.48242,-4.90039 -0.59147,-1.22326 -1.5909,-1.98418 -2.69922,-2.73632 -0.54435,-0.26982 -0.66742,-0.33538 -0.79297,-0.38672 z m 38.77735,10.35156 c -0.0201,0.0454 -0.0454,0.0878 -0.0742,0.12891 l 0.11523,0.0156 c -0.0135,-0.0362 -0.0253,-0.0725 -0.0332,-0.11133 -0.002,-0.0113 -0.005,-0.0221 -0.008,-0.0332 z m -90.76563,4.06836 c 0.85109,0.33474 2.56395,1.88627 5.16602,4.60156 7.07481,7.38513 9.1734,12.48094 9.25,22.4668 0.0653,8.51482 -0.81721,12.14241 -2.04297,8.39062 -0.33372,-1.02162 -1.59929,-5.42379 -2.81055,-9.77929 -1.21126,-4.3562 -4.2593,-12.0069 -6.77343,-17 -3.23333,-6.42053 -4.20755,-9.23758 -2.78907,-8.67969 z m 112.94727,5.81055 c 0.0105,0.14913 0.017,0.85895 0.0273,1.0332 0.0335,-0.006 0.0758,-0.0113 0.10547,-0.0176 -0.0583,-0.17937 -0.0905,-0.36292 -0.0859,-0.55273 -0.006,-0.14442 -0.0189,-0.28865 -0.041,-0.43164 -0.002,-0.0105 -0.004,-0.0208 -0.006,-0.0312 z M 238.06073,270.9811 c -0.15155,0.28752 -0.30337,0.57513 -0.45312,0.86328 l 0.36132,0.5586 c 1.20834,1.86784 2.17507,3.58087 3.20899,5.33593 -0.28422,-0.84866 -0.59515,-1.69072 -0.96094,-2.51367 -0.62967,-1.45819 -1.3847,-2.85571 -2.15625,-4.24414 z m 125.01953,22.61133 c 0.15772,0.73973 0.31688,1.47901 0.47461,2.21875 0.13233,0.03 0.23551,0.0529 0.37305,0.084 -0.0899,-0.29292 -0.19453,-0.57769 -0.27539,-0.87304 -0.15094,-0.3448 -0.36909,-0.91764 -0.57227,-1.42969 z m -36.67578,23.08008 c -0.0102,1.39957 -0.454,2.82946 -1,4.0664 0.77961,-0.0217 1.4067,0.0595 2.12891,0.0781 -0.23158,-2.0786 -0.61958,-3.40442 -1.12891,-4.14453 z m 4.60938,11.52929 c -0.62161,0.67115 -1.72122,1.86341 -0.46875,0.49414 -0.89509,1.10223 -1.62132,1.81901 -1.9336,2.19922 -0.75211,0.81131 -1.45045,1.54069 -2.28125,2.41992 -0.95229,0.97398 -1.9396,1.90513 -2.99023,2.77344 -1.01853,0.95045 -0.67243,0.60655 -0.54883,0.47461 -0.17134,0.21814 -0.89437,1.15173 -0.98828,1.18945 -0.0167,0.007 -0.005,-0.01 -0.0156,-0.01 -0.45093,0.55127 -1.00125,1.25714 -0.70898,0.86328 0.0804,-0.10687 0.32433,-0.42424 0.24023,-0.32031 -1.06059,1.30996 -0.29825,0.34426 -1.28906,1.66992 -0.94965,1.02426 -1.62462,2.68956 -2.6582,3.69531 -0.73495,0.96785 -1.45407,1.94703 -2.17578,2.92383 2.72966,-1.82298 5.44449,-3.67653 7.96679,-5.7832 2.12416,-1.93003 4.28356,-3.87394 5.67969,-6.42578 0.40362,-0.72418 0.8131,-1.43264 1.17969,-2.17579 0.15263,-0.3094 0.20628,-0.68322 0.43945,-0.9375 0.0186,-0.0203 0.0302,0.10201 0.0352,0.0762 0.0499,-0.25908 0.0674,-0.52353 0.10156,-0.78516 0.10769,-0.82341 0.25066,-1.59902 0.41602,-2.3418 z m 8.13281,16.84571 c -0.44781,0.42583 -0.97253,1.07698 -1.50977,1.76172 0.40596,-0.48441 0.81316,-0.97061 1.2793,-1.39844 0.0263,-0.0242 0.0859,-0.0769 0.11914,-0.10742 v -0.002 c 0.0414,-0.0821 0.0703,-0.1715 0.11133,-0.2539 z m -1.50977,1.76172 c -0.0631,0.0752 -0.1366,0.14133 -0.19922,0.21679 -0.27516,0.34922 -0.33554,0.43165 -0.19336,0.24024 0.14617,-0.19677 0.25307,-0.27922 0.39258,-0.45703 z m -178.13867,9.74218 c 0.0344,0.14228 0.0772,0.43104 0.10938,0.54492 0.0392,0.13877 0.38214,0.42757 0.30664,0.30469 -0.15912,-0.25892 -0.28236,-0.56098 -0.41602,-0.84961 z m 141.89063,6.85938 c -0.0133,0.012 -0.0247,0.0259 -0.0391,0.0371 -0.68386,0.62592 -1.23325,1.11936 -2.20898,2.13672 -0.80678,0.81066 -1.61317,1.62347 -2.41406,2.43945 -0.92947,0.9488 -1.85609,1.90232 -2.78711,2.84961 -0.82742,0.83134 -1.69581,1.60319 -2.45313,2.5 -0.88558,1.15662 -1.85549,2.25324 -2.60742,3.50586 -1.17413,2.15188 -2.28828,4.33583 -3.51367,6.45898 -1.02507,1.77607 -1.93571,3.61483 -2.89649,5.42578 -1.17379,2.17477 -2.32439,4.36276 -3.67773,6.43555 -1.42292,2.09508 -2.92265,4.16032 -4.67774,5.99219 -1.87259,1.83057 -3.85016,3.55594 -6.08007,4.94531 -2.69867,1.69083 -5.42985,3.35373 -8.41407,4.50195 -3.21619,1.22182 -6.48523,2.35132 -9.83984,3.13282 -3.41277,0.81476 -6.87473,1.4324 -10.39062,1.53906 -3.05449,0.0896 -6.10999,0.0167 -9.16407,-0.0762 -2.54143,-0.0997 -5.08437,-0.23272 -7.60351,-0.60352 -2.00236,-0.2794 -4.02387,-0.3713 -6.02344,-0.68555 -2.32789,-0.3851 -4.6322,-0.8947 -6.95313,-1.31836 -2.63519,-0.58313 -5.29193,-1.05837 -7.92187,-1.66992 -2.91776,-0.72626 -5.81351,-1.5353 -8.66016,-2.50781 -2.66165,-0.95032 -5.32163,-1.97653 -7.75781,-3.42773 -1.69856,-0.98832 -3.34029,-2.06979 -4.8125,-3.37891 -1.697,-1.35606 -3.32582,-2.79697 -4.97461,-4.21094 -1.93926,-1.77777 -3.90485,-3.55337 -5.47656,-5.67969 -0.81032,-1.15507 -1.68862,-2.26121 -2.36524,-3.51171 -0.31986,-0.76698 -0.8426,-1.43038 -1.1875,-2.1836 -0.2781,-0.5278 -0.43375,-0.88901 -0.59179,-1.19922 0.82737,2.32809 1.69336,4.64552 2.39844,7.01172 0.27547,2.02491 0.77223,3.9307 -1.10743,5.82031 -2.58308,2.59686 -4.63732,2.7131 -7.34961,1.98047 -1.12944,-0.31072 -2.24987,-0.64878 -3.39062,-0.91797 -1.75339,-0.51707 -3.4925,-1.09919 -5.16797,-1.83398 -1.7787,-0.77397 -3.55004,-1.57311 -5.29102,-2.42773 -0.5801,-0.29526 -1.16465,-0.58218 -1.74218,-0.88477 -3.078,0.93051 -7.17986,0.54555 -11.89649,-1.93359 -0.20758,1.31525 -0.4955,2.52992 -0.90429,3.57617 1.47675,0.15735 3.7089,1.23575 7.22656,2.66211 3.96926,-1.84126 7.62903,0.64566 7.46484,5.11914 5.24173,1.36854 5.896,8.2815 -2.09375,11.95508 -1.26666,0.58235 -2.53228,1.17594 -3.82812,1.69336 -0.0417,0.0984 -0.0777,0.19912 -0.1211,0.29687 -1.65247,2.49656 -1.81821,3.04403 -3.76367,2.19727 0.4222,1.58336 0.86847,3.16136 1.23242,4.75781 0.45768,2.05981 0.74395,4.146 1.07618,6.22461 0.92149,-1.18453 1.87092,-2.34872 2.85742,-3.48242 1.85401,-2.14357 3.96216,-4.04186 6.14062,-5.84571 1.66175,-1.41397 3.48182,-2.617 5.36524,-3.71093 1.30757,-0.70291 2.6411,-1.35156 4.01953,-1.9043 1.62629,-0.68649 3.33258,-0.85641 5.04687,-0.78516 -0.92195,-6.95276 3.14152,-11.44356 8.16016,-11.39843 3.91884,0.0352 8.41806,2.83586 11.56836,9.38476 0.75325,1.56598 1.75315,3.00633 2.5957,4.52344 1.19399,1.99382 2.40542,3.98006 3.52344,6.01758 0.9272,1.53086 1.75583,3.14195 2.62891,4.59375 0.29218,0.48609 0.4205,0.92435 0.66796,1.39843 0.21383,-0.20844 0.43581,-0.28898 0.65625,-0.29101 -0.017,-0.10564 -0.0365,-0.21016 -0.0508,-0.31641 -0.096,-0.60147 -0.18615,-1.2044 -0.26172,-1.80859 -0.0259,-0.0452 -0.0645,-0.0818 -0.0879,-0.12891 -0.0967,-0.19709 -0.17874,-0.40107 -0.24804,-0.60937 -0.084,-0.24756 -0.17567,-0.49143 -0.23047,-0.74805 -0.0456,-0.23371 -0.11335,-0.46305 -0.15625,-0.69727 -0.0198,-0.11015 -0.0298,-0.22158 -0.0566,-0.33007 -0.0106,-0.0297 -0.0421,-0.10918 -0.0625,-0.16602 -0.039,-0.0459 -0.0859,-0.10023 -0.0918,-0.10937 -0.0602,-0.08 -0.11802,-0.1619 -0.16602,-0.25 -0.0741,-0.099 -0.14869,-0.22308 -0.21679,-0.33789 -0.0742,-0.1231 -0.14832,-0.264 -0.16992,-0.3086 -0.0707,-0.13137 -0.11207,-0.27579 -0.13477,-0.42187 -0.0732,-0.52638 0.19064,-0.88299 0.69141,-1.01953 0.0705,-0.01 0.14118,-0.0144 0.21093,-0.0156 0.0242,-4.6e-4 0.0481,0.007 0.0723,0.008 0.16015,-0.0822 0.35491,-0.13316 0.58203,-0.14062 0.25235,-0.008 0.54432,0.0377 0.86914,0.15234 0.14835,0.0523 0.2969,0.0995 0.44922,0.13867 0.17984,0.0398 0.14306,0.0304 0.45117,0.12305 -0.0646,-0.0311 0.25916,0.12407 0.19336,0.0957 -0.0996,-0.0428 -0.32172,-0.15487 0.13672,0.0703 0.0276,0.0189 0.0545,0.0377 0.082,0.0566 0.0232,0.013 0.0149,0.009 0.10547,0.0586 0.22488,0.14829 0.2482,0.17298 0.37891,0.27148 -0.051,-0.0353 0.0166,0.0199 0.0781,0.0703 0.0208,0.017 0.0429,0.0349 0.0566,0.0469 l 0.006,0.006 c 0.005,0.004 0.0102,0.008 0.0117,0.01 0.0194,0.0166 0.0403,0.0356 0.0586,0.0527 0.006,0.005 0.002,-2.6e-4 0.008,0.006 0.005,0.004 0.002,0.002 0.006,0.006 0.15728,0.12987 0.16947,0.13779 0.2539,0.21289 0.0216,0.0122 0.20898,0.15731 0.26563,0.20703 -0.0348,-0.0296 0.0169,0.019 0.0625,0.0605 0.0102,0.004 0.0232,0.0114 0.0742,0.0449 0.17184,0.12992 0.19025,0.14102 0.32617,0.23242 0.13016,0.0959 0.25724,0.17893 0.39258,0.26953 0.005,-0.007 0.23891,0.15593 0.35156,0.23243 0.12781,0.0969 0.25405,0.19578 0.3789,0.29687 0.0151,0.009 0.0969,0.0791 0.1543,0.12891 l 0.002,0.002 c 0.12529,0.093 0.25084,0.18316 0.375,0.2793 -0.0174,-0.0132 -0.0689,-0.0532 -0.0508,-0.041 0.32354,0.21958 0.0548,0.0357 0.36133,0.26953 0.0423,0.0354 0.0417,0.0363 0.0605,0.0527 0.0112,0.007 0.0123,0.007 0.0566,0.0391 0.0189,0.0138 0.0379,0.0269 0.0566,0.041 0.0194,0.0231 0.10491,0.0887 0.16406,0.13281 0.004,0.003 0.008,0.009 0.0117,0.0117 0.11094,0.0739 0.24834,0.1892 0.32422,0.24609 0.0205,0.0241 0.10683,0.0862 0.15625,0.12109 0.0712,0.0472 0.13208,0.0924 0.16016,0.11719 -0.0286,-0.0262 0.0651,0.0428 0.0976,0.0645 -0.0343,-0.0238 0.0468,0.0355 0.0996,0.0742 0.0289,0.0171 0.0229,0.0115 0.10156,0.0586 0.004,0.002 -0.0536,-0.025 0.19141,0.0996 0.0969,0.075 0.18033,0.106 0.38477,0.30468 l -0.0606,-0.0586 c 0.0847,0.0679 0.34306,0.30695 0.28906,0.24219 0.0988,0.0934 0.13417,0.12893 0.16797,0.16211 0.005,0.005 0.0198,0.0178 0.0234,0.0215 0.0165,0.0136 0.0295,0.0252 0.0488,0.041 0.007,0.005 0.0128,0.009 0.0195,0.0137 0.0594,0.0439 0.108,0.087 0.16797,0.14062 -0.18243,-0.16347 0.0355,0.0232 0.13867,0.11133 1.00827,0.67022 1.13957,0.67141 2.33008,1.49219 8.08747,5.57569 24.12487,13.75016 34.15234,17.75391 0.0281,-0.002 0.0544,-0.008 0.084,-0.008 0.14137,9.1e-4 0.30023,0.023 0.47266,0.0723 0.23452,0.067 0.44108,0.19817 0.66211,0.29687 0.0762,0.0375 0.13068,0.0555 0.17578,0.0645 0.13249,0.0215 0.24466,0.0891 0.36719,0.13476 0,-0.009 0.0743,0.01 0.0879,0.0117 0.13501,0.0178 0.24306,0.0715 0.35156,0.13477 -0.0471,-0.0234 0.3565,0.0839 0.39649,0.0918 0.19305,0.0519 0.37867,0.12275 0.56836,0.18555 0.17152,0.0197 0.32935,0.0917 0.48632,0.16016 0.1612,0.0665 0.33107,0.10731 0.4961,0.16211 0.10615,0.0444 0.20975,0.0898 0.32226,0.11328 0.15717,0.0101 0.29287,0.10086 0.44336,0.13476 0.13025,0.0233 0.25268,0.0761 0.37891,0.11328 0.0901,0.0285 0.18374,0.0415 0.27734,0.0527 0.16512,0.0181 0.32181,0.0822 0.48438,0.11328 0.10387,0.0217 0.20893,0.031 0.31445,0.041 0.13314,-6.9e-4 0.31626,0.10274 0.41406,0.12304 0.16087,0.0275 0.31195,0.0907 0.47266,0.11914 0.18986,0.0212 0.38159,0.10589 0.54297,0.17969 0.0195,5e-4 0.13746,0.009 0.19726,0.0117 0.22061,0.003 0.43294,0.0665 0.64844,0.10547 0.15746,0.0233 0.31768,0.034 0.47656,0.041 0.20879,0.0271 0.41068,0.0839 0.61914,0.11329 0.19515,0.0456 0.38317,0.11001 0.58204,0.13671 0.21071,0.0251 0.42267,0.0334 0.63281,0.0645 0.15507,0.0383 0.30945,0.0759 0.46679,0.10351 0.0886,0.0123 0.17828,0.0204 0.26758,0.0234 0.21608,-0.008 0.42578,0.0466 0.63672,0.084 0.16434,0.0317 0.33124,0.0418 0.49805,0.0508 0.22109,0.009 0.44085,0.0117 0.66211,0.0137 0.2177,0.002 0.43658,0.002 0.65429,0.002 0.22727,2.5e-4 0.45438,0.004 0.68165,0.004 0.2993,-0.003 0.59623,0.051 0.89257,0.0879 0.18161,0.026 0.36369,0.037 0.54688,0.043 0.12802,0.004 0.25671,0.01 0.38476,0.0117 1.43445,0.0206 1.41345,1.46991 -0.0215,1.44921 -0.13816,-0.002 -0.27594,-0.008 -0.41406,-0.0117 -0.22617,-0.008 -0.45148,-0.0233 -0.67578,-0.0547 -0.23683,-0.0297 -0.47424,-0.0771 -0.71289,-0.0781 -0.22786,-5e-5 -0.45575,2.6e-4 -0.6836,0 -0.22133,-10e-4 -0.44273,10e-4 -0.66406,-0.002 -0.24266,-0.002 -0.48606,-0.005 -0.72852,-0.0156 -0.16645,-0.009 -0.33129,-0.0303 -0.49609,-0.0527 0.007,0.0719 0.0187,0.11994 0.0234,0.2207 0.42386,0.73256 0.65435,1.0572 0.46289,1.33985 0.17146,0.28185 0.17609,0.2735 -0.29297,0.42383 -0.14832,0.0484 -0.29859,0.0913 -0.44727,0.13867 -0.12202,0.0669 -0.22182,0.12022 -0.18554,0.0859 -0.003,0.002 -0.007,0.002 -0.01,0.004 -0.16397,0.0892 -0.33589,0.15922 -0.51758,0.18945 -0.11863,0.0239 -0.2329,0.0629 -0.34765,0.10157 -0.008,0.003 -0.0201,0.009 -0.0293,0.0117 -0.0322,0.20534 -0.0729,0.40866 -0.14844,0.60351 -0.008,0.0197 -0.0156,0.039 -0.0234,0.0586 0.29095,0.12603 0.59188,0.23471 0.875,0.37891 0.0529,0.0224 0.10523,0.046 0.15821,0.0684 0.31051,-0.0313 0.62071,-0.0671 0.93164,-0.0937 0.52848,-0.0155 1.64565,-0.13507 1.82617,0.63867 0.065,0.27865 0.0205,0.56577 -0.0723,0.84766 0.0526,0.0521 0.0966,0.10799 0.14454,0.16211 0.016,-0.009 0.0308,-0.0213 0.0469,-0.0293 0.15234,-0.0753 0.30636,-0.21345 0.47461,-0.18945 0.43846,0.0626 0.83558,0.29202 1.25391,0.4375 0.0343,0.1236 0.0811,0.24508 0.125,0.36719 0.42266,0.0385 0.83741,0.12576 1.23242,0.30859 0.008,0.004 0.0153,0.0119 0.0234,0.0156 0.41402,-0.55333 0.93121,-0.75881 1.98242,-0.20117 0.20533,0.10892 0.28893,0.33302 0.31836,0.58203 0.42684,-0.57753 0.97195,-1.04865 1.66406,-0.88281 0.11138,-0.24277 0.21999,-0.48692 0.33789,-0.72656 0.0497,-0.10096 0.0713,-0.22268 0.15234,-0.30078 0.23959,-0.2312 0.52747,-0.40787 0.79102,-0.61133 0.0123,0.008 0.0266,0.0137 0.0391,0.0215 0.0213,-0.0299 0.0399,-0.0615 0.0605,-0.0918 0.16325,-0.10279 0.31004,-0.29263 0.47461,-0.38868 0.22037,-0.45198 0.44222,-0.90511 0.6875,-1.34375 0.0423,-0.52058 0.0984,-1.04056 0.15234,-1.55859 0.0911,-0.63537 0.12006,-1.2812 0.23047,-1.91406 0.0234,-0.13388 0.0329,-0.274 0.0918,-0.39649 0.10961,-0.22803 0.15543,-0.65182 0.4082,-0.64062 0.69567,0.0309 1.30054,0.49597 1.95117,0.74414 0.003,0.0344 0.005,0.0691 0.008,0.10352 0.14299,-0.22852 0.29435,-0.43701 0.52343,-0.54883 0.34368,-1.30852 0.68791,-2.61579 1.08203,-3.91016 0.13964,-0.33205 0.42713,-1.19262 0.93555,-1.07617 0.5426,0.12427 0.97356,0.5456 1.36133,0.9668 10e-4,-0.004 0.003,-0.008 0.004,-0.0117 0.21005,0.0416 0.42483,0.0684 0.63867,0.0976 0.25359,-0.91847 0.52304,-1.83193 0.89062,-2.71093 0.39187,-0.55716 0.56386,-0.9933 1.52539,-0.86133 0.2123,-0.497 0.46263,-0.84509 1.53516,-0.64063 0.01,0.002 0.0178,0.009 0.0273,0.0117 0.14896,-0.0626 0.30555,-0.11642 0.40625,-0.16015 0.13829,-0.33932 0.20946,-0.52813 0.35352,-0.91016 0.14411,-0.36755 0.36917,-1.2405 0.75781,-1.77149 0.0449,-0.59316 0.15713,-1.69264 0.69727,-1.75195 0.31594,-0.0347 0.55357,-0.0455 0.75781,-0.041 0.007,-0.0221 0.013,-0.0424 0.0195,-0.0645 0.14191,-0.47795 0.49898,-1.68665 1.13672,-1.71875 0.34138,-0.0172 0.59266,-0.0115 0.78516,0.0156 0.0821,-0.12957 0.17815,-0.21885 0.29101,-0.23047 0.0768,-0.008 0.11713,-0.006 0.18555,-0.0117 0.19614,-0.45322 0.39121,-0.9071 0.59765,-1.35547 0.14249,-0.32848 0.27519,-0.6613 0.40625,-0.99414 -0.005,-0.1959 -0.0343,-1.03731 0.0371,-1.04687 0.17168,-0.023 0.2669,-0.0396 0.39258,-0.0586 0.0313,-0.0814 0.0623,-0.16278 0.0937,-0.24414 0.22853,-0.59542 0.48129,-1.18167 0.7461,-1.76172 0.12354,-0.27665 0.26712,-0.54293 0.41796,-0.80468 0.12719,-0.43553 0.24082,-0.87506 0.375,-1.3086 0.32145,-0.93974 0.66255,-1.08966 1.26368,-0.83594 0.21494,-0.15581 0.44337,-0.23477 0.71289,-0.21484 0.15606,0.0115 0.32856,0.0563 0.51757,0.12695 0.18421,-0.22576 0.36469,-0.45447 0.55665,-0.67382 0.19501,-0.18856 0.4152,-0.43791 0.63281,-0.67579 0.0192,-0.066 0.0354,-0.13322 0.0547,-0.19921 0.0596,-0.16183 0.10895,-0.32862 0.16015,-0.49415 0.0253,-0.23537 0.0543,-0.46943 0.0723,-0.63476 0.1083,-0.57901 0.0731,-1.32893 0.41015,-1.8418 0.0944,-0.14363 0.21922,-0.26548 0.32813,-0.39844 0.43131,-0.0393 0.87538,-0.21843 1.29492,-0.13281 0.16224,-0.24511 0.33049,-0.48638 0.49414,-0.73047 0.0918,-0.24902 0.22357,-0.45064 0.4082,-0.59179 0.10809,-0.15498 0.21057,-0.31433 0.32227,-0.4668 0.10611,-0.10772 0.18272,-0.25362 0.31641,-0.32422 0.81411,-0.43028 1.14911,-0.41683 1.78906,0.21289 0.55189,-2.55002 1.19941,-5.07237 2.22656,-7.46875 0.80638,-1.8815 1.70167,-3.72423 2.55274,-5.58594 1.35867,-2.74746 3.09219,-5.2428 4.95312,-7.64453 -1.29978,-1.00653 -2.34556,-2.32162 -3.20312,-4.10937 -1.14565,-2.49162 -2.02077,-5.10194 -2.42188,-7.82422 -0.40041,-2.78436 -0.50093,-5.59468 0.50195,-8.2793 0.78282,-1.68073 1.54001,-3.28305 2.83789,-4.63672 0.7754,-0.94419 1.30188,-2.05815 1.82618,-3.15625 0.84032,-1.93494 1.52271,-3.92634 2.22461,-5.91211 z m -62.71485,83.19336 c 0.0259,0.0151 0.0518,0.0265 0.0781,0.043 0.0104,0.006 -0.0387,-0.0274 -0.0273,-0.0234 -0.0275,-0.009 -0.044,-0.0162 -0.0508,-0.0195 z m -77.50195,-79.07617 c -0.0735,0.073 -0.14601,0.14696 -0.21875,0.2207 0.14521,0.77902 0.32353,1.55053 0.49414,2.32422 -0.0749,-0.54754 -0.16375,-1.09248 -0.22266,-1.64258 -0.0268,-0.30012 -0.029,-0.60203 -0.0527,-0.90234 z m 1.80664,20.51171 c -0.0146,-0.001 -0.0284,0.004 -0.043,0.004 0.0209,0.006 0.0416,0.012 0.0625,0.0176 -0.24095,-0.036 0.75597,0.17032 0.56445,0.14062 -0.194,-0.0301 -0.39259,-0.14281 -0.58398,-0.16211 z m 29.58203,43.72852 c 0.53867,1.48384 0.88433,2.89784 1.00781,4.20508 2.0867,1.75263 3.49059,3.67538 4.11328,5.59961 0.37865,0.17734 0.75043,0.4184 1.11133,0.61914 0.11013,0.0613 0.44419,0.23709 0.33008,0.18359 -0.46997,-0.22019 -0.93743,-0.44552 -1.40625,-0.66797 0.0192,0.0626 0.0311,0.12498 0.0488,0.1875 1.32438,0.5819 2.66771,1.12683 3.93945,1.81446 0.7265,0.12683 0.33516,0.0583 1.18555,0.20703 -0.003,-9.7e-4 0.01,0.003 0.01,0.002 0.41528,0.0726 0.13202,0.0235 0.57813,0.10156 0.32604,0.10479 0.0517,0.0202 0.32226,0.10742 0.0556,-0.066 0.11659,-0.1331 0.1875,-0.19921 0.30325,-0.28271 0.5973,-0.57609 0.88868,-0.8711 0.0646,-0.0627 0.17656,-0.0834 0.25,-0.15234 -0.37195,-0.21337 -0.75122,-0.41423 -1.12696,-0.61914 -0.0126,-0.007 -0.0245,-0.0148 -0.0371,-0.0215 -0.0894,0.054 -0.18158,0.10339 -0.27929,0.13672 -0.17574,0.06 -0.36467,0.0698 -0.54688,0.10547 -0.16818,-0.0353 -0.34337,-0.0442 -0.5039,-0.10547 -0.34551,-0.13201 -0.55081,-0.42886 -0.78125,-0.69336 -0.48039,-0.51553 -0.93557,-1.05647 -1.41797,-1.57031 -0.94408,-1.02036 -1.90527,-2.02347 -2.87891,-3.01562 -0.8122,-0.83607 -1.61875,-1.67779 -2.4043,-2.53907 -0.56363,-0.60973 -1.11516,-1.23406 -1.60156,-1.9082 -0.13458,-0.18893 -0.26608,-0.3791 -0.39453,-0.57227 -0.11387,-0.0924 -0.22766,-0.18532 -0.3418,-0.27734 -0.0875,-0.008 -0.17074,-0.0303 -0.25195,-0.0566 z m 10.33984,12.15039 c -0.28247,-0.0872 0.93408,0.2965 0.84961,0.27148 0.003,-0.003 0.005,-0.006 0.008,-0.01 -0.34001,-0.10485 -0.53388,-0.16184 -0.85743,-0.26172 z m 2.69532,-3.36328 c -0.0104,0.0151 -0.0209,0.0298 -0.0312,0.0449 0.043,0.0233 0.086,0.0469 0.1289,0.0703 -0.0295,-0.0361 -0.0678,-0.0789 -0.0977,-0.11523 z m -7.6836,1.89062 c 0.005,0.0221 0.0129,0.0444 0.0176,0.0664 0.85913,0.32804 1.74795,0.67401 2.56445,0.98438 0.29644,0.0517 0.25453,0.0451 0.57813,0.10156 -0.0727,-0.0389 -0.14409,-0.0802 -0.2168,-0.11914 -1.49893,-0.53697 -2.01112,-0.7076 -2.94336,-1.03321 z m 2.94336,1.03321 c 0.1781,0.0638 0.16757,0.0575 0.34961,0.12304 0.9908,0.47898 -2.49825,-1.30183 -1.88281,-0.95898 0.50857,0.28332 1.01992,0.56108 1.5332,0.83594 z m 0.34961,0.12304 c -0.0307,-0.0148 0.0988,0.0489 0.0586,0.0293 0.0293,0.005 0.0212,0.005 0.0508,0.01 -0.0573,-0.0207 -0.0523,-0.0185 -0.10938,-0.0391 z m 0.0586,0.0293 c -0.11013,-0.0192 -0.0843,-0.0145 -0.19141,-0.0332 0.36238,0.19368 0.72001,0.39553 1.08203,0.58984 0.0343,0.0139 0.0692,0.029 0.10352,0.043 -0.32324,-0.18427 -0.63562,-0.3853 -0.95313,-0.57812 0.0334,0.0164 -0.0694,-0.0353 -0.041,-0.0215 z m -3.26172,-0.66016 c 0.005,0.0307 0.009,0.0612 0.0137,0.0918 0.5733,0.0998 0.73428,0.12844 1.26367,0.2207 -0.42111,-0.10587 -0.85445,-0.20693 -1.27734,-0.3125 z m 3.94336,0.89063 c 0.35109,0.19894 0.67804,0.43779 1.01367,0.66211 0.17327,0.0734 0.34742,0.14462 0.52148,0.2168 0.0169,-0.0832 0.0445,-0.16936 0.0859,-0.25782 -0.59562,-0.22547 -0.82615,-0.33159 -1.62109,-0.62109 z m 0.40625,0.43555 c 0.0423,0.0228 0.0847,0.0455 0.12695,0.0684 -0.0299,-0.0173 -0.0579,-0.0375 -0.0879,-0.0547 -0.0128,-0.005 -0.0263,-0.009 -0.0391,-0.0137 z m 0.68359,0.27539 c 0.069,0.0466 0.14047,0.0893 0.20898,0.13672 0.16299,0.0502 0.18894,0.0536 0.23047,0.0625 10e-4,-0.006 0.003,-0.0132 0.004,-0.0195 -0.14791,-0.0602 -0.29612,-0.11707 -0.44336,-0.17968 z m 2.75586,0.0293 c -0.046,0.0459 -0.0925,0.091 -0.13867,0.13672 0.0132,0.005 0.23626,0.0763 0.23242,0.0762 -0.018,-0.0341 -0.0363,-0.0689 -0.0527,-0.10546 -0.0132,-0.0359 -0.0278,-0.0715 -0.041,-0.10743 z m -0.1543,0.1543 -0.0273,0.0273 c 0.10129,0.0324 0.1926,0.0614 0.3125,0.0996 -0.009,-0.016 -0.0179,-0.0322 -0.0273,-0.0488 -0.0648,-0.0195 -0.18476,-0.056 -0.25781,-0.0781 z m 3.29492,1.00781 c -0.009,0.0244 -0.0152,0.0486 -0.0254,0.0723 0.0475,0.015 0.0128,0.004 0.0606,0.0195 -0.006,-0.0284 -0.0286,-0.0632 -0.0352,-0.0918 z m -0.1289,0.25586 c -0.005,0.007 -0.0121,0.0126 -0.0176,0.0195 0.0645,0.0195 0.1289,0.0391 0.19336,0.0586 -0.001,-0.0101 0.001,-0.0192 -0.002,-0.0293 -0.0612,-0.0163 -0.11258,-0.0319 -0.17383,-0.0488 z m 61.64648,37.68946 c 0.5623,0.5288 1.13005,1.0513 1.70313,1.56836 -0.0742,-0.0824 -0.1378,-0.17418 -0.21289,-0.25586 -0.13019,-0.12248 -0.10403,-0.10199 -0.23438,-0.22461 -0.39878,-0.40308 -0.47361,-0.42722 -1.02344,-0.91602 -0.0751,-0.0577 -0.1568,-0.11415 -0.23242,-0.17187 z m 3.86524,3.75195 c 0.019,0.0454 0.0416,0.0893 0.0605,0.13476 0.0119,0.0199 0.0288,0.0513 0.0391,0.0684 0.0254,0.0338 0.0413,0.0544 0.0664,0.0879 -0.0575,-0.10067 -0.0998,-0.17595 -0.16601,-0.29101 z m 57.0625,10.11523 c -0.5125,0.71384 -0.99404,1.45068 -1.53516,2.14453 -0.27637,0.35523 -0.53672,0.60489 -0.81445,0.94922 0.79995,0.1452 1.60185,0.28431 2.40039,0.43555 -0.0402,-1.17581 -0.0318,-2.3534 -0.0508,-3.5293 z m -87.08789,121.75977 c -0.26904,-0.4439 0.57709,0.91809 0.45898,0.71094 0.0962,0.12327 0.0423,0.0635 0.10938,0.14648 -0.19271,-0.3122 -0.40948,-0.59526 -0.56836,-0.85742 z m -1.56836,4.57812 c 0.0879,0.67699 0.12947,1.35945 0.16015,2.04102 -4.8e-4,0.0538 0.0103,0.10656 0.0117,0.16016 0.41165,0.22612 0.76934,0.7377 0.87695,1.53906 0.27327,0.22279 0.45464,0.96348 0.53125,1.22656 0.4465,1.89027 0.71046,3.81817 0.97657,5.74024 0.18202,1.30488 0.31503,2.6152 0.42383,3.92773 0.0409,-0.0824 0.0803,-0.16538 0.125,-0.24609 0.23373,-0.19309 0.41222,-0.48808 0.70117,-0.58008 0.0643,-0.0205 0.12551,-0.0288 0.1875,-0.041 0.0283,-0.11043 0.0705,-0.21035 0.16015,-0.27148 0.44029,-0.30032 0.96397,-0.62091 1.49414,-0.56641 0.3849,0.0396 0.55737,0.53615 0.83594,0.80469 0.15015,0.53588 0.2085,1.09139 0.2793,1.64258 0.0761,0.83013 0.0801,1.66328 0.0469,2.49609 -0.0332,1.00311 -0.082,2.00584 -0.16992,3.00586 -0.095,1.10735 -0.197,2.21586 -0.2793,3.32422 -0.0966,1.35054 -0.1682,2.70148 -0.2539,4.05273 -0.0939,1.42406 -0.12358,2.85219 -0.25781,4.27344 -0.0816,0.72635 -0.18909,1.45 -0.3418,2.16406 0.19574,0.67662 0.0247,1.60804 -0.0566,2.11719 -0.13869,0.85826 -0.44026,1.67291 -0.76563,2.47461 -0.15379,0.37665 -0.32937,0.74486 -0.51367,1.10742 -0.12213,0.22597 -0.23005,0.45672 -0.37109,0.67188 -0.19656,0.27297 -0.46582,0.54535 -0.80469,0.62695 -0.14207,0.0342 -0.28774,0.0508 -0.43164,0.0762 -0.14106,-0.0177 -0.28536,-0.0204 -0.42383,-0.0527 -0.38154,-0.0889 -0.7273,-0.35209 -0.96289,-0.6543 -0.021,-0.0269 -0.035,-0.0587 -0.0527,-0.0879 -0.25422,-0.023 -0.50616,-0.0966 -0.75977,-0.13281 -0.18003,-0.20424 -0.37635,-0.39499 -0.53906,-0.61328 -0.13014,-0.17454 -0.14261,-0.63689 -0.1582,-0.86133 -0.021,-0.39447 -0.0458,-0.78878 -0.0879,-1.18164 -0.0375,-0.33123 -0.0802,-0.66245 -0.14062,-0.99024 -0.0791,-0.43583 -0.0926,-0.87345 -0.01,-1.31054 0.0937,-0.59866 0.20939,-1.19413 0.33399,-1.78711 0.0276,-0.13739 0.0479,-0.27636 0.0742,-0.41407 -0.0389,-0.0595 -0.0775,-0.11991 -0.11133,-0.17187 -0.34474,-0.61931 -0.4839,-1.31939 -0.62695,-2.00586 -0.14282,-0.72033 -0.23367,-1.44825 -0.35743,-2.17187 -0.0955,-0.53521 -0.19224,-1.07002 -0.30664,-1.60157 -0.1157,-0.50799 -0.14931,-1.03046 -0.22461,-1.54492 -0.0913,-0.64337 -0.18866,-1.28562 -0.25976,-1.93164 -0.0462,-0.60187 -0.11417,-1.20153 -0.16797,-1.80273 -0.0279,-0.24758 -0.0409,-0.49531 -0.0527,-0.74414 -0.068,0.0239 -0.14394,0.0399 -0.22852,0.043 -1.16418,0.0427 -1.47331,-0.31582 -1.70313,-1.05664 -0.0933,-0.31961 -0.1534,-0.64603 -0.25,-0.96484 -0.0708,-0.29897 -0.16074,-0.59229 -0.24804,-0.88672 -0.081,-0.32712 -0.21746,-0.63656 -0.32031,-0.95703 -0.14451,-0.47663 -0.31587,-0.94529 -0.4668,-1.41992 -0.16281,-0.55358 -0.31125,-1.11111 -0.40235,-1.68164 -0.0473,-0.41592 -0.0672,-0.83475 0.002,-1.25 0.0345,-0.21498 0.081,-0.42913 0.15039,-0.63477 -0.018,-0.015 -0.0259,-0.019 -0.0508,-0.041 -0.0219,-0.0194 -0.0879,-0.0784 -0.0645,-0.0605 0.34209,0.25882 -0.0427,-0.031 -0.11718,-0.10352 -0.11947,-0.11847 -0.21914,-0.25042 -0.32032,-0.38476 0.18871,0.25975 -0.1037,-0.10558 -0.1582,-0.17188 -0.0643,-0.0956 -0.10925,-0.19569 -0.14648,-0.29883 -6.9e-4,-0.002 -3.2e-4,-0.004 -0.002,-0.006 -0.009,-0.0161 -0.0188,-0.0323 -0.0273,-0.0488 -0.0102,-0.0135 -0.0161,-0.0208 -0.041,-0.0547 -0.12056,-0.16414 -0.0925,-0.29253 -0.16406,-0.44727 -0.11717,-0.0338 -0.2325,-0.072 -0.3457,-0.11914 -0.0993,-0.036 -0.20081,-0.0637 -0.30274,-0.0918 -0.0121,0.0353 -0.0354,0.10551 -0.043,0.125 -5.9e-4,0.002 -3.6e-4,0.004 -0.002,0.006 -0.006,0.0155 -0.0153,0.0456 -0.0215,0.0566 -0.0404,0.11024 -0.0913,0.21286 -0.1543,0.3125 -0.0145,0.0325 -0.0329,0.0657 -0.0488,0.0977 0.005,-0.0127 0.009,-0.0305 0.0137,-0.0469 l -0.002,0.002 c -0.0106,0.0316 -0.008,0.0289 -0.0156,0.0527 -0.0203,0.0402 -0.0395,0.0799 -0.0645,0.12109 0.0277,-0.0462 0.0443,-0.0714 0.0566,-0.0977 -0.046,0.14319 -0.0907,0.25313 -0.125,0.3086 -0.0334,0.13675 -0.0438,0.18151 -0.0859,0.27734 -1.5e-4,0.002 2.2e-4,-4.4e-4 0,0.004 0.003,0.20449 -0.053,0.39688 -0.12696,0.58398 -0.002,0.062 -0.004,0.12356 -0.004,0.18555 0.003,0.21658 -0.0663,0.39709 -0.13086,0.59375 -0.003,0.008 0.009,-0.0154 0.0117,-0.0234 0.0356,-0.0987 -0.0457,0.28899 -0.0664,0.36719 -0.023,0.075 -0.0399,0.15031 -0.0469,0.22851 -0.008,0.16056 -0.0326,0.31654 -0.0566,0.47657 -0.0241,0.0953 -0.0558,0.18875 -0.0703,0.28515 -0.01,0.0617 -0.01,0.1252 -0.0117,0.1875 0.006,0.23767 -0.0277,0.46846 -0.0918,0.69727 -0.0212,0.0786 -0.0229,0.0725 -0.0234,0.0684 0.002,-4.2e-4 0.004,0.008 0.002,0.0352 -0.007,0.20055 -0.0463,0.39575 -0.0957,0.58985 -0.0234,0.0603 -0.0272,0.12079 -0.0332,0.18359 -0.005,0.19205 -0.0616,0.37769 -0.10743,0.5625 -0.0246,0.14863 -0.0868,0.31142 -0.11718,0.4707 -0.0326,0.18885 -0.0877,0.37299 -0.12696,0.56055 -0.0224,0.19192 -0.0701,0.37814 -0.12695,0.5625 -0.0312,0.15527 -0.0724,0.30853 -0.12891,0.45703 -0.0147,0.0284 -0.0486,0.13743 -0.0273,0.0879 -0.0193,0.1353 -0.0668,0.26399 -0.11133,0.39258 -0.0204,0.0583 -0.0214,0.0713 -0.01,0.0352 -0.008,0.0774 -0.076,0.28393 -0.13086,0.42383 0.0571,-0.14113 -0.0514,0.2508 -0.0723,0.3164 -0.0324,0.12567 -0.0523,0.25154 -0.0801,0.37891 -0.0204,0.10811 -0.0779,0.21131 -0.0859,0.32226 -0.009,0.0711 -0.0126,0.14325 -0.0156,0.21485 0.004,0.22981 -0.048,0.45237 -0.12305,0.66797 0.0234,-0.0813 0.006,0.0393 0.004,0.0586 -0.005,0.0713 -0.008,0.14139 -0.01,0.21289 0.02,0.15784 -0.083,0.40405 -0.10546,0.54102 -0.0109,0.0642 -0.0116,0.12837 -0.0156,0.19336 -0.004,0.0738 -0.009,0.14875 -0.01,0.22265 -7.4e-4,0.0988 2e-5,0.19808 0,0.29688 -5e-4,0.25695 -0.0491,0.50934 -0.0801,0.76367 -0.0143,0.14181 -0.0311,0.28336 -0.0371,0.42578 -0.005,0.1077 -0.0107,0.21643 -0.0117,0.32422 -0.002,0.13642 -0.002,0.27178 -0.002,0.4082 0.006,0.22399 -0.0685,0.43394 -0.11524,0.64844 -5.3e-4,0.003 -2.1e-4,0.005 -0.002,0.008 -0.23247,5.08032 -0.56976,11.98135 -1.04297,20.08985 -0.47152,8.07973 -0.90708,12.88767 -1.49414,15.66796 -2e-4,10e-4 2e-4,0.003 0,0.004 -0.0107,0.0668 -0.0268,0.13433 -0.041,0.20898 -0.003,0.009 -0.005,0.0146 -0.0215,0.0469 -0.0153,0.0669 -0.0332,0.12747 -0.0488,0.19141 -2.3e-4,0.0156 -0.0117,0.0312 -0.0117,0.0469 0.007,0.16336 -0.024,0.32363 -0.0801,0.47656 -0.0126,0.003 -0.0548,0.1564 -0.0332,0.0879 -0.004,0.0395 -0.0107,0.0793 -0.0117,0.11914 0.0123,0.13322 -0.087,0.33131 -0.11133,0.4336 -0.007,0.0338 -0.009,0.0819 -0.0117,0.1289 0.004,0.17759 -0.0415,0.34823 -0.10743,0.51172 -0.0189,0.0464 -0.017,0.0426 -0.0176,0.043 0.002,-0.003 0.005,-0.002 0.004,0.008 -0.006,0.0411 -0.009,0.0815 -0.01,0.12305 0.005,0.13761 -0.0198,0.26727 -0.041,0.4043 -0.0241,0.077 -0.0609,0.16793 -0.0742,0.24023 -0.007,0.059 -0.0107,0.11648 -0.0137,0.17578 0.006,0.16268 -0.0622,0.31263 -0.0918,0.46875 -0.0175,0.0747 -0.0243,0.15037 -0.0293,0.22657 -0.007,0.17605 -0.0583,0.34556 -0.0996,0.51562 -0.0135,0.07 -0.0214,0.14179 -0.0254,0.21289 -0.006,0.10986 -0.009,0.22007 -0.01,0.33008 0.005,0.19773 -0.0478,0.3891 -0.0918,0.58008 -0.0169,0.0824 -0.0214,0.1662 -0.0254,0.25 -0.005,0.10855 -0.007,0.21751 -0.008,0.32617 -0.002,0.10954 -0.002,0.21858 -0.002,0.32813 -1.7e-4,0.0969 3e-5,0.19401 0,0.29101 -2e-5,0.0815 -1e-5,0.16264 0,0.24414 -0.001,0.0202 -7.7e-4,0.0733 0,0.11914 0.0198,0.0614 0.065,0.23115 0.0762,0.28321 0.0181,0.0864 0.0266,0.17383 0.0332,0.26171 0.0211,0.0566 0.0726,0.26478 0.082,0.31055 0.0306,0.14657 0.0438,0.29608 0.0508,0.44531 -0.0295,-0.21719 0.0653,0.17809 0.0703,0.20118 0.0342,0.15718 0.0467,0.31631 0.0547,0.47656 5e-5,0.001 -8e-5,0.007 0,0.008 9.9e-4,-0.01 0.005,0.0183 0.008,0.0273 0.0172,0.0588 0.0333,0.11834 0.0488,0.17774 0.005,0.0234 0.0106,0.0467 0.0156,0.0703 0.007,0.0321 0.0126,0.0634 0.0176,0.0957 5.7e-4,10e-4 -5.9e-4,0.003 0,0.004 0.008,0.0169 0.0172,0.0343 0.0215,0.0449 0.0214,0.01 0.12052,0.40316 0.0762,0.21485 0.013,0.0227 0.0232,0.0475 0.0254,0.0527 0.0641,0.0948 0.0559,0.0834 0.10546,0.16992 0.0614,0.115 -0.001,-0.006 0.084,0.18164 0.0484,0.10705 -0.0273,-0.0694 -0.0273,-0.0703 0.003,-0.0422 0.038,0.0488 0.0645,0.0996 0.002,-0.0537 0.0833,0.12939 0.13672,0.21484 -0.0384,-0.0917 0.003,-0.0103 0.0449,0.082 0.0268,0.0429 0.0779,0.13089 0.0859,0.14454 0.0366,0.067 0.0389,0.0737 0.0508,0.10351 0.0473,0.0758 0.0469,0.0743 0.0898,0.15625 0.0397,0.11598 0.059,0.10441 0.15039,0.29883 9.9e-4,-0.0308 0.14242,0.25822 0.0723,0.10547 0.0704,0.10152 0.13593,0.20561 0.20703,0.30664 0.24622,0.35051 -0.14172,-0.16337 0.14453,0.20703 0.01,0.0126 -0.0164,-0.0277 -0.0254,-0.041 0.0439,0.0301 0.10304,0.11862 0.11914,0.13672 0.008,0.009 -0.0145,-0.0226 -0.0215,-0.0312 -0.004,-0.007 0.0135,0.0106 0.0195,0.0156 0.0116,0.0135 0.0374,0.0334 0.0605,0.0527 0.0679,0.0264 0.13528,0.0536 0.20313,0.0801 0.0667,0.0357 0.14141,0.0805 0.0566,0.0273 0.0201,0.006 0.0115,0.007 0.0312,0.0117 1.44818,0.36346 1.07048,1.83497 -0.375,1.46094 -0.0512,-0.0128 -0.0246,-0.008 -0.082,-0.0234 -0.1062,-0.032 -0.20722,-0.0745 -0.30469,-0.12695 -0.0953,-0.0309 -0.21502,-0.0726 -0.25391,-0.0996 -0.12539,-0.0719 -0.23893,-0.15861 -0.34375,-0.25781 -0.2288,-0.2074 -0.0693,-0.0825 -0.25195,-0.25781 -0.0868,-0.10984 -0.10476,-0.11741 -0.21094,-0.28321 -0.0196,-0.0279 -0.18963,-0.26797 -0.14843,-0.23047 -0.13569,-0.17469 -0.14631,-0.21373 -0.26368,-0.41211 -0.0191,-0.0416 -0.199,-0.37923 -0.125,-0.25 -0.0275,-0.0614 -0.063,-0.11896 -0.0957,-0.17773 l -0.002,-0.002 c -0.003,-0.005 -0.009,-0.009 -0.0117,-0.0137 -0.0129,-0.0167 -0.0235,-0.0278 -0.0488,-0.0703 -0.10295,-0.17273 -0.12355,-0.21238 -0.11719,-0.20898 -0.008,-0.0122 -0.0137,-0.0209 -0.0215,-0.0332 -0.15015,6.37046 -2.41886,10.59198 -5.4082,12.57421 2.22052,0.2185 4.44168,0.43134 6.66015,0.67383 0.26435,-1.63765 0.72025,-3.39739 1.41992,-5.27734 0.70379,-1.89094 1.77154,-3.60496 2.87696,-5.28125 1.24593,-1.75949 2.68299,-3.372 4.09375,-4.99805 0.44993,-0.64702 1.03187,-1.18886 1.50586,-1.8164 0.0424,-0.0562 -0.0963,0.10289 -0.14453,0.15429 0.62182,-1.00759 1.33434,-1.95817 1.97851,-2.95117 0.80112,-1.20438 1.5353,-2.45121 2.28906,-3.68555 0.59219,-1.10127 1.17012,-2.21229 1.76953,-3.31054 0.90274,-1.47294 1.70355,-2.99613 2.66016,-4.43946 0.79286,-1.42321 1.6897,-2.77838 2.59961,-4.13086 1.09197,-1.51206 2.24421,-2.9784 3.33008,-4.49414 1.15221,-1.5341 2.3056,-3.07009 3.52344,-4.55273 1.14752,-1.38912 2.30824,-2.76796 3.48632,-4.13086 1.44746,-1.69214 3.12598,-3.15498 4.8125,-4.59961 0.44997,-0.38547 0.89622,-0.73343 1.3418,-1.06836 -1.07028,-1.35748 -2.11262,-2.73812 -3.12109,-4.13867 -1.97264,-2.63553 -3.56548,-5.51631 -5.09766,-8.41992 -0.19651,-0.37239 0.38671,0.74911 0.58399,1.12109 -2.05171,-3.12152 -3.39758,-6.51244 -4.62305,-9.97266 -0.84302,-0.9667 -1.21151,-1.42633 -3.02149,-3.93359 -0.11244,-0.15576 -0.15413,-0.21624 -0.33593,-0.46875 h -0.002 c -0.002,4.9e-4 -0.003,0.002 -0.004,0.002 -0.0492,-0.0583 -0.10355,-0.11418 -0.14844,-0.17578 -1.02035,-1.39893 -2.07846,-2.77106 -3.04883,-4.20508 -0.0229,-0.0339 -0.0365,-0.0663 -0.0625,-0.10546 -0.0665,-0.0933 -0.10172,-0.1379 -0.15234,-0.20704 -0.0489,-0.0535 -0.19285,-0.30806 -0.25196,-0.38085 -1.08538,-0.33806 -2.08745,-0.63609 -2.89843,-0.86524 -0.33688,0.0512 -1.24715,-0.017 -2.27539,-0.0606 z m 11.3164,8.04493 c -0.0551,-0.0953 0.18548,0.31142 0.16992,0.2832 -0.003,-0.008 -0.005,-0.017 -0.008,-0.0254 -0.1892,-0.31166 -0.0578,-0.0774 -0.16211,-0.25781 z m -18.9375,3.30468 c -0.0402,0.0405 -0.10127,0.10166 -0.19726,0.2168 -0.0648,0.0777 0.12237,-0.11721 0.19726,-0.2168 z m -0.28125,0.69141 c -0.008,0.0135 -0.0114,0.0186 -0.0234,0.0391 0.006,-0.01 0.0113,-0.0172 0.0137,-0.0195 0.004,-0.007 0.007,-0.0125 0.01,-0.0195 z m 11.25977,3.70117 c -0.006,-0.0102 0.035,0.077 0.043,0.084 l 0.004,0.004 c -0.0149,-0.0294 -0.0303,-0.0594 -0.0469,-0.0879 z m -3.44336,16.59375 c -0.0238,0.0403 -0.0418,0.0823 -0.0449,0.12891 -9e-4,0.0123 0.0116,-0.0222 0.0176,-0.0332 0.0109,-0.0315 0.0175,-0.0639 0.0273,-0.0957 z m 1.98828,4.01953 c -0.0206,0.12683 -0.0207,0.24744 0.008,0.3711 0.0135,0.0726 0.0231,0.14592 0.0352,0.21875 0.0377,-0.0663 0.0752,-0.13332 0.11328,-0.19922 0.0476,-0.0877 0.0886,-0.17835 0.13281,-0.26758 -0.0756,-0.0218 -0.16689,-0.061 -0.28906,-0.12305 z M 62.273621,733.15493 c 1.941477,1.74946 3.947371,3.4008 6.035156,4.92969 -0.296072,-0.25697 -0.613353,-0.48708 -0.90625,-0.74805 -1.707022,-1.39711 -3.40851,-2.80086 -5.128906,-4.18164 z" />
      <path
         style="display:inline;fill:#4a90e2;fill-opacity:1"
         d="M 117.95697,752.55468 C 73.219115,748.87007 41.042691,719.92256 32.592305,675.75637 29.068208,657.33758 29.783072,248.47484 33.363854,234.47317 40.486823,206.62073 56.205512,187.05474 83.122083,172.53612 94.853757,166.20814 96,164.67041 96,155.25989 96,145.78678 94.384012,143.26665 88.286422,143.2306 66.663036,143.10277 53.560413,115.81213 67.648439,100.24503 c 1.808667,-1.998552 2.355879,-6.639854 2.992567,-25.382128 1.173413,-34.5419 12.668646,-50.414864 40.306364,-55.65625 12.18037,-2.30996 236.37375,-1.658285 245.47983,0.71355 27.19103,7.082362 37.20963,21.840357 38.02045,56.006352 0.47732,20.113211 0.70505,21.672947 3.98169,27.271346 10.32476,17.64062 -1.02731,36.8042 -24.09601,40.67679 l -5,0.83937 c 0,9.03578 -0.26853,5.9021 -0.53154,11.95928 -0.0349,0.80386 -0.38734,8.01487 3.16668,11.19561 15.91168,14.24042 54.24505,34.7765 59.36426,65.39094 2.33612,13.97075 2.9868,433.71744 -0.71317,448.18418 -8.98803,35.14288 -36.74639,62.79126 -68.61956,68.34769 -21.53579,3.75432 -206.57028,5.84918 -244.04303,2.76292 z m 9.36975,-22.61742 c 0.44958,-0.72744 -2.00207,-2.97744 -5.44812,-5 -30.184102,-17.71567 -44.793202,-33.98664 -51.786362,-57.67737 -2.8914,-9.7952 -4.43386,-39.17852 -2.198071,-41.87248 3.187813,-3.84108 5.079847,-0.90534 5.767964,8.94975 0.972703,13.93088 5.107578,23.50998 14.467106,33.51534 7.606134,8.13098 9.335651,11.67799 6.53743,13.40739 -4.104365,2.53663 4.650876,14 10.692623,14 2.38158,0 2.52963,-0.67156 1.76366,-8 -0.89757,-8.58743 -0.55846,-8.98671 5.63303,-6.63271 8.36578,3.18066 10.33165,-0.30197 4.62068,-8.18574 C 112.3289,665.4732 108,653.93426 108,647.44737 108,642.91922 106.86574,641.24668 96.944367,631.14505 55.107265,588.54786 67.11183,518.46931 117.6297,510.39118 c 6.9143,-1.10565 7.08501,-1.82152 2.8958,-12.14388 -10.85274,-26.74158 -4.2103,-60.95623 15.64948,-80.60909 4.97712,-4.92526 8.51538,-9.28499 7.86281,-9.6883 -0.65257,-0.40331 -6.7371,-3.51194 -13.52118,-6.90806 C 89.58859,380.55323 72.179349,329.72343 92.177164,289.1021 99.344667,274.54284 104.00808,270.67965 109.27114,274.94142 l 2.8999,2.34819 -4.71006,9.98514 c -21.595814,45.78219 -1.94708,90.36768 46.83267,106.26933 12.98523,4.23304 13.55234,3.95444 9.24661,-4.5425 -1.81813,-3.58791 -4.33337,-9.66543 -5.58943,-13.5056 -2.08455,-6.37315 -2.89636,-7.27195 -9.30776,-10.30502 -21.80754,-10.31662 -31.27441,-36.54698 -24.69625,-68.42725 6.13437,-29.72951 21.07426,-49.54026 54.18394,-71.84955 21.11715,-14.22873 35.00083,-41.11145 35.62891,-68.98761 L 214,145.25989 h -47.33333 -47.33334 l -0.66666,15.33333 c -0.85244,19.6061 -1.78517,21.02273 -20.248024,30.75268 -23.157531,12.20406 -37.877153,29.79081 -42.334611,50.58065 -1.180098,5.50405 -1.469833,60.05005 -1.161504,218.66667 l 0.410802,211.33333 3.023068,7.94245 c 7.86286,20.65794 26.687825,40.38723 44.795939,46.94787 10.07042,3.64855 22.83006,5.29555 24.17438,3.12039 z M 81.373354,490.88747 c -14.502674,-7.33844 -10.523207,-30.29425 5.251611,-30.29425 10.174029,0 16.141695,5.80094 16.280045,15.82521 0.15725,11.39431 -11.769325,19.40884 -21.531656,14.46904 z m 10.329971,-8.36986 c 5.615241,-3.93306 2.725768,-13.92439 -4.026909,-13.92439 -7.086801,0 -10.441736,9.91188 -4.713074,13.92439 1.629838,1.14159 3.596334,2.07561 4.369991,2.07561 0.773658,0 2.740154,-0.93402 4.369992,-2.07561 z m 3.010253,-43.17007 c -2.598843,-4.85598 -0.06508,-10.75432 4.619755,-10.75432 2.604037,0 5.999997,3.77329 5.999997,6.66667 0,5.82807 -8.033436,8.92023 -10.619752,4.08765 z m -7.780245,-31.02099 c -4.269673,-4.26967 0.235922,-10.48072 5.772819,-7.95794 5.136589,2.34038 3.596498,9.55794 -2.039485,9.55794 -1.173334,0 -2.853334,-0.72 -3.733334,-1.6 z M 67.77642,400.32534 c -0.307516,-0.95266 -0.233012,-35.93212 0.165563,-77.73212 l 0.724684,-76 4.279045,-9.03369 c 4.977371,-10.50795 16.115922,-22.29964 21.064472,-22.29964 4.838245,0 4.972671,1.87261 0.439992,6.1293 -20.576096,19.32321 -20.325803,18.06855 -21.116843,105.85314 -0.602734,66.88759 -0.874342,74.02238 -2.83223,74.39879 -1.19106,0.22899 -2.417168,-0.36311 -2.724683,-1.31578 z m 41.80833,-147.78406 c -6.45408,-6.01289 -2.7765,-15.94806 5.90329,-15.94806 8.83605,0 12.76479,9.20171 6.57257,15.39394 -3.98426,3.98426 -8.57517,4.18817 -12.47586,0.55412 z m 39.28857,-33.05305 c -2.93248,-3.24035 -2.78445,-6.31721 0.46001,-9.56168 4.93417,-4.93416 12.33334,-2.13447 12.33334,4.66667 0,6.66811 -8.31092,9.84805 -12.79335,4.89501 z m -47.01125,-6.10699 c -1.05422,-2.74724 0.45887,-4.78802 3.54995,-4.78802 3.39203,0 3.32734,3.51048 -0.0985,5.34392 -2.09962,1.12368 -2.85356,1.00225 -3.45148,-0.5559 z m 23.91904,-25.54431 c -1.76863,-4.60898 1.7107,-5.23487 31.39439,-5.6475 31.09622,-0.43226 37.19531,0.75608 30.186,5.88141 -3.98612,2.91472 -60.45446,2.70023 -61.58039,-0.23391 z m 7.9604,-20.10319 c -2.07261,-5.40113 2.51197,-6.12049 32.92516,-5.16623 28.96833,0.90892 32.49792,1.54594 29.38023,5.30253 -2.65539,3.19955 -61.07434,3.07175 -62.30539,-0.1363 z m 225.78625,559.30312 c 21.24291,-7.83724 39.9721,-27.80738 47.30908,-50.44364 3.45898,-10.67175 6.08407,-422.78696 2.7021,-439.04342 -4.20474,-20.21134 -17.8027,-28.85151 -39.55087,-40.44378 -8.41226,-4.48393 -8.21589,-6.6404 -18.54919,-13.12512 -6.52223,-4.09306 -6.43902,-12.10686 -6.74945,-21.8042 L 344.48238,146.2485 298,145.89033 c -51.52616,-0.39704 -48.96731,-1.32536 -47.7754,9.84827 3.80148,35.63726 14.34962,54.37531 40.95011,72.74508 56.83679,39.25034 70.2197,117.21401 23.56561,137.28406 -5.94005,2.55534 -6.79713,3.45993 -8.06216,8.50906 -0.77854,3.10737 -3.0066,9.09277 -4.95125,13.3009 -4.15804,8.99782 -3.65506,9.99583 3.93116,7.80026 50.66253,-14.66252 72.64238,-60.90307 51.10612,-107.5155 -5.57619,-12.06893 -5.27259,-10.57036 -2.66895,-13.174 4.81159,-4.81159 10.38279,-0.10935 17.51403,14.7823 20.16543,42.11 0.74263,94.54553 -42.27594,114.13192 -4.76666,2.17027 -8.92695,4.19126 -9.24507,4.4911 -0.31813,0.29983 2.80278,3.76815 6.93534,7.70738 23.33089,22.23934 28.36924,55.47663 13.70008,90.37733 -0.76215,1.81331 0.17894,2.53999 4.83157,3.73077 52.96942,13.55688 64.60509,76.49045 22.31304,120.68396 -10.46441,10.93489 -11.56064,12.58382 -12.35063,18.57763 -0.91171,6.91724 -7.97612,23.70311 -11.04879,26.2532 -8.02751,6.66224 6.1339,7.02301 19.19462,0.489 16.89979,-8.45462 25.31286,-20.8079 26.62641,-39.09674 0.82539,-11.49218 2.22042,-14.56598 5.40949,-11.91929 2.61665,2.17163 1.36207,31.63788 -1.80047,42.2873 -7.02828,23.66677 -23.12005,41.92649 -48.89892,55.48677 -15.48174,8.14375 -4.58683,11.4178 14.52776,4.36577 z M 369.59745,490.3628 c -10.76916,-5.30734 -10.95697,-22.24009 -0.30776,-27.74701 17.90357,-9.2583 31.63667,16.80207 14.3942,27.31491 -5.24877,3.20019 -8.28095,3.29321 -14.08644,0.4321 z m 10.10588,-7.84519 c 7.12273,-4.98895 0.98133,-17.82121 -6.61392,-13.81955 -7.66041,4.036 -5.98625,15.89516 2.24392,15.89516 0.77366,0 2.74016,-0.93402 4.37,-2.07561 z m -19.43666,-42.19106 c -3.53896,-3.53895 -0.39956,-11.73333 4.49523,-11.73333 2.00783,0 7.2381,4.60297 7.2381,6.36999 0,5.10455 -8.23011,8.86656 -11.73333,5.36334 z m 10.96352,-33.66958 c -1.50903,-6.01245 4.91182,-10.04568 8.7089,-5.47047 3.01532,3.63323 1.17097,8.03053 -3.56001,8.48779 -3.65165,0.35293 -4.41533,-0.0946 -5.14889,-3.01732 z m 18.8106,-107.61954 c -0.34501,-0.97765 -1.24854,-29.36312 -1.25757,-33.86875 -0.0226,-11.27689 -0.39277,-12.0547 -1.5293,-18.47743 l -1.45624,-5.32744 c -1.96585,-7.19181 -6.60599,-11.45337 -12.62901,-17.38517 -6.07242,-5.98046 -9.51704,-6.53571 -8.32143,-8.43432 4.81525,-7.64651 23.22776,8.39013 27.83687,24.24492 4.04519,13.91494 1.49898,70.98631 -2.64332,59.24819 z m -48.70746,-46.44421 c -4.46698,-4.46699 -3.63485,-11.72164 1.59685,-13.9214 10.17144,-4.27677 18.06052,7.1355 9.55668,13.82463 -4.41758,3.47486 -7.74655,3.50374 -11.15353,0.0968 z M 304,219.25989 c -3.20923,-3.20923 -3.33423,-5.12025 -0.59106,-9.03666 2.56267,-3.65873 8.63553,-3.93083 11.71774,-0.52502 6.58639,7.27788 -4.16839,16.51997 -11.12668,9.56168 z m 49.6,-5.6 c -3.93472,-3.93472 -1.05009,-8.5537 4.47578,-7.16679 4.81353,1.20812 3.5986,8.76679 -1.40911,8.76679 -0.80667,0 -2.18667,-0.72 -3.06667,-1.6 z m -75.22839,-26.08886 c -3.55659,-4.28543 1.45448,-5.38427 28.96172,-6.35078 28.84612,-1.01357 34.6878,0.1828 32.22541,6.59971 -1.17166,3.05328 -58.64058,2.81947 -61.18713,-0.24893 z m 14.39154,-17.30995 c -22.95864,-0.40805 -26.09648,-1.09277 -26.09648,-5.69453 0,-4.32874 58.23259,-5.5399 63.3209,-1.31698 4.98336,4.13582 0.30495,8.18951 -8.89991,7.71148 -3.16488,-0.16435 -15.91091,-0.47934 -28.32451,-0.69997 z m -86.09648,557.75707 c 0,-6.07292 -35.10506,-25.9986 -54.44985,-30.90581 -37.65234,-9.5513 -44.11175,-3.23247 -16.69503,16.33169 18.01086,12.85229 71.14488,23.73686 71.14488,14.57412 z m 88.40346,-0.2534 c 21.02255,-4.73573 50.2632,-24.42996 50.2632,-33.85339 0,-3.26318 -30.46923,1.11061 -46.16339,6.62667 -13.68028,4.80823 -40.50327,22.95899 -40.50327,27.40802 0,2.81116 23.64219,2.69342 36.40346,-0.1813 z m -40.14074,-21.53168 c 4.62217,-3.49808 13.93911,-9.21866 20.70432,-12.71241 14.43698,-7.45568 17.52926,-10.96347 23.08524,-26.18722 5.70508,-15.6323 8.69227,-20.93414 15.55004,-27.59912 8.71789,-8.47283 12.80993,-10.35198 6.98997,-3.20995 -7.26466,8.91491 -8.17858,10.43997 -7.70464,12.85673 0.38662,1.97152 0.97852,1.82398 4.46681,-1.11343 2.21162,-1.86235 9.71162,-7.15384 16.66666,-11.75887 16.59434,-10.98732 25.41657,-20.31365 31.9855,-33.8131 9.07468,-18.64888 8.61048,-27.51036 -0.70585,-13.4747 -8.44135,12.71743 -17.42449,19.62715 -39.67696,30.51903 -45.54694,22.29378 -61.6114,38.24447 -76.88382,76.33932 -7.77954,19.40493 -7.46513,19.983 5.52273,10.15372 z m -36.26272,3.55389 c 0,-2.79629 -13.16748,-32.768 -18.14514,-41.30182 -9.72572,-16.67402 -31.86024,-34.115 -60.27826,-47.49651 -24.17681,-11.38439 -36.39126,-21.32518 -44.51459,-36.2284 -3.471169,-6.36828 -5.590181,-5.37595 -4.560593,2.13571 2.344253,17.10319 15.221393,33.42673 40.513833,51.3568 8.25838,5.85446 15.34379,11.17607 15.74535,11.82581 1.30594,2.11306 3.2394,1.24681 3.2394,-1.45136 0,-1.44798 -3.6,-6.3118 -8,-10.80847 -9.5401,-9.74972 -9.9097,-10.66752 -2.14436,-5.32482 9.90819,6.81701 16.19255,15.25739 22.96342,30.84162 8.14582,18.7489 11.37333,22.5172 25.5932,29.88154 6.37326,3.30065 14.88774,8.66961 18.92107,11.93102 7.35416,5.94666 10.66667,7.38726 10.66667,4.63888 z m 17.21092,-18.78597 c 3.27629,-9.70161 3.41945,-15.69903 0.80543,-33.7411 -4.28314,-29.56243 -0.0945,-30.48857 6.03026,-1.33334 2.12518,10.11634 2.31936,10.47302 3.76375,6.9132 4.67111,-11.5123 -6.84507,-55.39829 -14.16711,-53.98819 -13.23551,2.54892 -21.81547,50.16972 -12.56554,69.74166 10.83343,22.92247 12.22176,23.99021 16.13321,12.40777 z m 128.96452,-0.23233 c 6.78674,-6.78674 7.26489,-8.84211 2.05698,-8.84211 -4.63252,0 -9.21782,4.59364 -10.37858,10.39744 -1.19593,5.97964 1.24234,5.52392 8.3216,-1.55533 z M 150.66667,677.19367 c 0,-7.28976 -22.30129,-28.07694 -26.07425,-24.30398 -3.31166,3.31166 6.92944,19.31056 15.13467,23.64375 6.06993,3.20553 10.93958,3.49943 10.93958,0.66023 z m 172.88344,-0.70539 c 6.74072,-3.26313 17.78322,-16.81776 17.78322,-21.82885 0,-3.6212 -12.04843,1.95527 -19.75462,9.14318 -12.72742,11.87145 -11.58132,19.24643 1.9714,12.68567 z m -17.77603,-61.3425 c 55.32508,-38.51415 71.91361,-72.70143 39.92672,-82.28494 -27.7832,-8.32405 -85.63648,27.55481 -79.1799,49.10498 2.31372,7.72249 3.3789,7.58709 13.41559,-1.70534 11.10281,-10.27951 26.60265,-18.56708 40.5131,-21.66186 14.42975,-3.21031 16.56044,-2.24913 6.98884,3.15274 -19.9557,11.2623 -36.91661,36.18354 -42.7731,62.84794 -1.28559,5.85327 -0.14636,5.34306 21.10875,-9.45352 z M 180,625.56281 c 0,-2.8846 -7.90003,-22.38939 -12.99695,-32.08885 -5.88294,-11.19525 -17.94969,-23.7583 -29.66972,-30.89 -9.9711,-6.06748 -8.69105,-7.1296 4.8383,-4.01458 12.41142,2.85763 28.70798,11.13507 39.40742,20.01604 9.73766,8.08266 11.01414,8.54879 13.0407,4.76212 9.67205,-18.07239 -42.19153,-55.88576 -70.72661,-51.56629 -36.980943,5.59796 -23.45548,44.99046 26.70751,77.78483 10.66964,6.97535 20.89935,13.77667 22.73268,15.11405 3.94844,2.88031 6.66667,3.24021 6.66667,0.88268 z m 29.88565,-7.33701 c 9.12831,-23.8885 21.71029,-38.09596 62.68517,-70.78348 54.73568,-43.66514 66.53499,-67.83408 49.72336,-101.8501 -10.93824,-22.13202 -33.39739,-33.06404 -39.73293,-19.34006 -1.79341,3.88487 -7.43867,11.43976 -12.70295,17 -5.21128,5.50425 -10.18239,11.35773 -11.04692,13.00773 -1.86979,3.56859 -3.91605,3.82239 -6.15301,0.76317 -1.51123,-2.06673 -1.91454,-2.01742 -5.3037,0.6485 -5.3514,4.20941 -7.08829,1.98047 -2.27957,-2.92536 26.26211,-26.79249 34.7059,-39.15072 19.8318,-29.0256 -19.16271,13.04447 -45.72304,12.22308 -65.06005,-2.01201 -13.56004,-9.98233 -13.3312,-1.45656 0.36308,13.52716 7.11148,7.78109 7.95786,10.70133 3.51067,12.11281 -3.8131,1.21024 -15.88204,-11.25467 -21.72687,-22.43969 -10.3651,-19.8353 -43.05578,8.14758 -45.58,39.01603 -2.14779,26.26495 7.83105,43.77881 39.74584,69.75798 10.54557,8.58427 21.78011,17.82506 24.96564,20.53507 l 5.79187,4.92731 5.82356,-6.60935 c 8.5304,-9.68143 5.8632,-13.49681 -19.27674,-27.57507 -11.84356,-6.63233 -28.13057,-19.74168 -28.13057,-22.64217 0,-0.72636 1.95,-0.0357 4.33334,1.5347 2.38333,1.57045 12.13333,6.80649 21.66666,11.63566 9.53334,4.82917 19.84144,10.50318 22.9069,12.60891 9.98455,6.85862 10.59088,4.88348 2.32412,-7.57091 -7.21431,-10.86883 -17.4463,-19.37975 -36.18366,-30.09739 -24.04369,-13.75282 -32.26014,-22.24179 -32.35141,-33.4244 -0.0421,-5.15386 2.05262,-5.70939 3.98028,-1.0556 0.90881,2.19405 3.75229,5.83294 6.31886,8.08641 10.74541,9.4346 15.91312,8.35166 11.31513,-2.37118 -1.51056,-3.52274 -3.13239,-8.80498 -3.60407,-11.73832 l -0.85759,-5.33333 4.82826,5.32148 c 2.65554,2.92682 7.5319,10.72682 10.83635,17.33333 l 6.0081,12.01186 11.5727,5.46856 c 13.1606,6.21891 22.00317,13.47983 28.22605,23.17735 5.25523,8.18956 6.34879,8.26214 11.10291,0.73694 7.15457,-11.32482 22.34293,-22.69764 37.06923,-27.75689 1.18735,-0.40792 4.69263,-5.44063 7.78951,-11.18382 14.48976,-26.87132 24.66124,-34.34444 14.79986,-10.87364 -4.79989,11.42409 -4.84505,11.76483 -1.55906,11.76483 3.03372,0 15.66337,-11.05123 16.82986,-14.72652 1.13849,-3.58705 3.31434,-3.28196 3.31434,0.46473 0,11.27671 -9.81039,21.19123 -33.26672,33.61982 -17.00297,9.00921 -28.02268,18.24656 -35.9766,30.15766 -8.91111,13.34449 -7.43083,14.77503 6.20174,5.99332 4.97287,-3.20337 14.14158,-8.25916 20.37491,-11.23509 6.23334,-2.97592 14.30332,-7.535 17.93329,-10.13128 3.62998,-2.59628 6.92998,-4.38521 7.33333,-3.9754 1.67697,1.70379 -16.42964,16.54438 -29.52191,24.19684 -45.95287,26.85955 -67.75518,53.93997 -67.95499,84.40613 -0.12108,18.46243 3.30477,21.14536 8.7626,6.86237 z m 6.36336,-162.03419 c -3.35456,-3.57077 -3.66428,-4.93172 -1.12233,-4.93172 2.79554,0 6.91252,5.1608 5.35749,6.71583 -0.87043,0.87042 -2.31178,0.26324 -4.23516,-1.78411 z m 45.89466,166.30389 c 1.68195,-6.70143 -0.32695,-22.29432 -3.89751,-30.2521 -4.42925,-9.87158 -6.53413,-10.6511 -12.54085,-4.64437 l -4.71788,4.71787 6.71101,11.80483 c 3.69106,6.49265 7.41542,14.05482 8.27636,16.80482 1.80609,5.76901 4.91619,6.56001 6.16887,1.56895 z M 129.33333,604.08386 c 0,-0.28015 -3.45696,-4.03015 -7.68213,-8.33333 -9.7845,-9.96517 -16.71998,-20.49367 -20.10517,-30.52097 -2.989321,-8.85467 -5.016781,-10.54261 -6.338381,-5.27694 -1.594119,6.35148 4.787957,22.20292 12.416651,30.8398 7.28961,8.25298 21.70903,17.08132 21.70903,13.29144 z m 215.12363,-3.34635 c 13.09961,-9.01278 25.57353,-28.0693 24.63318,-37.63234 -0.67822,-6.89723 -3.14403,-5.87925 -6.22471,2.56978 -3.65791,10.03218 -8.50911,17.19816 -18.70081,27.62402 -11.11192,11.36722 -10.962,15.18172 0.29234,7.43854 z M 247.68678,412.79355 c 20.36258,-6.33755 38.38283,-26.32281 42.92614,-47.60702 0.77407,-3.62632 1.69945,-7.88432 2.05641,-9.46222 0.36141,-1.59762 3.30122,-4.42321 6.63423,-6.37648 8.77705,-5.1437 15.251,-12.33584 19.55588,-21.72533 7.33909,-16.0075 5.14121,-16.08317 -14.19277,-0.48861 -17.27497,13.93377 -16.30742,13.99197 -12.61206,-0.75865 6.9114,-27.58793 0.84212,-45.17977 -27.32061,-79.18896 -13.15457,-15.8854 -22.63856,-33.67572 -27.99979,-52.52271 -3.89019,-13.67571 -5.51918,-16.21432 -6.79961,-10.59654 -6.48546,28.4542 -12.7742,40.75566 -34.70034,67.87753 -23.98953,29.67422 -31.42426,56.33316 -22.0751,79.15534 3.71544,9.06973 3.20515,9.46742 -4.13863,3.22546 -27.46005,-23.34009 -32.85362,-24.07347 -22.54475,-3.06547 3.3178,6.76119 11.85205,14.75024 22.07704,20.66666 1.44782,0.83775 3.01756,4.73999 4.22322,10.4986 7.58564,36.2313 43.26125,60.21883 74.91074,50.3684 z m -47.72005,-29.92672 c -12.02913,-6.36116 -19.38409,-22.80512 -12.75178,-28.50999 10.69915,-9.20303 31.45172,5.38411 31.45172,22.10766 0,9.36057 -7.95528,12.08424 -18.69994,6.40233 z m 48.32994,0.98412 c -9.24006,-6.47199 4.34905,-29.79687 18.59951,-31.92492 9.02247,-1.34734 13.11024,0.83107 13.07454,6.96752 -0.0961,16.51876 -20.62638,32.69548 -31.67405,24.9574 z m -31.78529,-41.4917 c -22.52529,-27.93167 -23.00143,-44.94089 -2.14965,-76.79167 8.13284,-12.42278 9.17462,-15.51466 10.32428,-30.64103 1.12211,-14.76395 1.77329,-14.62367 8.7384,1.88251 3.14454,7.45204 9.3056,19.00204 13.69125,25.66667 24.27533,36.88987 22.17383,60.39 -8.05879,90.11749 -3.8801,3.81527 -0.55889,-7.70888 5.57142,-19.33208 12.33496,-23.38733 11.41719,-34.73615 -4.99045,-61.71032 -8.04585,-13.22736 -7.62503,-13.28838 -17.01708,2.46739 -15.47607,25.96212 -16.02639,35.50412 -3.47542,60.26081 10.39082,20.49583 9.5237,23.15591 -2.63396,8.08023 z m -56.28643,-39.28137 c -0.89871,-14.79069 4.08129,-32.35627 13.15221,-46.39074 8.09286,-12.52123 5.29574,-13.4408 -5.99302,-1.97023 -16.62472,16.89247 -22.27326,40.75859 -12.56704,53.09805 4.15544,5.28278 5.92261,3.73479 5.40785,-4.73708 z m 151.11837,-0.69402 c 6.00117,-12.64654 0.13525,-34.58793 -12.67046,-47.39364 -13.20265,-13.20266 -15.59307,-12.24189 -6.7257,2.70323 7.39405,12.46197 14.02457,33.32208 13.63597,42.89977 -0.32279,7.95594 2.42867,8.81128 5.76019,1.79064 z m 58.77102,-185.07628 c 4.14175,-2.71378 4.18742,-7.86715 0.10589,-11.94867 -3.99535,-3.99536 -52.17972,-5.17189 -185.33009,-4.52529 l -87.776524,0.42627 -3.890141,4.35437 c -4.033443,4.51477 -4.749334,7.55356 -2.586467,10.97896 2.716936,4.3029 272.946352,4.99362 279.477332,0.71436 z M 113.06044,84.854926 c 0,0 -0.079,-2.952919 0.27289,-13.825346 0.65577,-20.263988 -1.44382,-18.097229 5.38025,-18.43636 5.63367,-0.279973 4.43118,0.494188 4.73974,16.47161 l 0.30802,15.94885 6.90533,0.246207 6.23937,-0.121551 0.1327,-14.871988 c 0.17113,-19.179521 -0.78546,-18.107041 5.1031,-18.160279 6.64865,-0.06011 5.39694,0.01055 5.65925,18.380516 0.10935,7.657521 0.31522,11.83344 0.0828,13.867517 -0.12043,1.054104 1.67615,0.977937 7.84822,0.955144 l 4.64673,-0.01716 -0.31194,-16.647716 c -0.33322,-17.784156 -1.18781,-16.628954 7.40191,-16.6668 5.20497,-0.02293 4.29511,1.839171 4.67665,17.039837 0.20821,8.295194 -0.28221,12.346437 -0.0747,15.569618 0.11401,1.770828 1.18463,1.339529 7.74123,1.339529 3.57934,0 2.13054,-0.465262 3.99133,-0.352256 1.38338,0.08401 0.84835,-8.068657 0.84835,-18.0091 0,-17.795236 -1.63524,-15.982909 7.53508,-16.202073 5.12939,-0.122589 3.35264,-0.01996 3.78908,18.328082 0.19007,7.990677 0.32708,11.92968 0.12593,14.346113 -0.14647,1.759506 0.16297,0.968632 9.11018,1.213781 6.53761,0.179127 5.26851,0.501356 5.2737,-1.567524 0.007,-2.895458 -0.28091,-7.167118 -0.2169,-16.675678 0.11258,-16.723254 -1.96717,-15.967917 7.10899,-16.061032 5.092,-0.05224 3.95209,2.213169 4.45149,17.376548 l 0.55408,16.823896 10.93962,0.0074 c 2.87771,0.0019 3.06518,-0.177469 3.02428,-1.795219 -0.0735,-2.908751 -0.26687,-5.324003 -0.31761,-15.937729 -0.0876,-18.320156 -0.80427,-16.210975 7.36074,-16.247723 5.20744,-0.02344 4.92335,0.813445 5.12059,16.468751 0.1061,8.421558 0.33873,12.494514 0.34283,15.131199 0.004,2.785937 0.12073,2.44651 6.95828,2.44651 4.39228,0 7.7041,0.761588 7.67139,-1.647971 -0.0338,-2.492657 -0.37922,-7.043753 -0.27809,-15.571585 0.20503,-17.291292 -0.78598,-16.38124 4.3185,-16.372027 8.7231,0.01574 6.79237,-2.23419 7.71696,16.065845 l 0.18577,16.710425 c 16.63316,-0.08629 13.38669,1.418957 13.30941,-1.96815 -0.0648,-2.8414 0.12335,-6.233156 0.0864,-14.332658 -0.0724,-15.867504 -0.42986,-16.456673 3.71939,-16.59605 8.51603,-0.286062 8.39477,0.09704 8.2529,16.931091 -0.0754,8.947657 0.0954,11.973812 -0.007,14.537888 -0.14517,3.652228 -1.47169,1.895269 8.15359,2.161607 2.742,0.07587 5.88755,0.511203 5.99686,-1.01459 0.19576,-2.732597 0.20437,-6.2919 0.35845,-13.11277 0.39453,-17.465269 -0.19895,-19.163327 4.11202,-19.223146 6.58392,-0.09136 7.04594,-2.621628 7.54848,17.266156 l 0.3758,14.871989 h 6 6 l 0.0992,-15.902294 c 0.11578,-18.559119 0.59365,-17.200577 6.62905,-17.342573 5.28569,-0.124357 5.2845,-0.82831 5.2845,24.058273 0,3.676914 0.0997,5.404432 0.18809,7.668111 0.13115,3.35749 2.70218,1.163379 11.72338,1.618604 13.40709,0.676545 11.0539,-21.379257 4.74538,-35.701313 -3.04758,-6.918849 -13.41314,-6.540092 -19.49532,-7.904556 -7.95563,-1.784751 -226.70011,-2.700961 -234.39543,0.01547 -13.20017,4.659636 -19.131731,7.234104 -20.778847,34.132279 -0.767405,12.532077 8.019907,10.841443 19.727107,10.286371 z"
         id="path2" />
    </g>
  </g>
</svg>
